#N canvas 0 50 561 452 12;
#X msg 54 315 colors-packed;
#X obj 145 281 s;
#X msg 166 250 symbol \$1-get-colors-packed;
#X obj 103 226 t b b f f;
#X obj 193 132 change 0;
#X msg 54 364 color \$2 \$2 \$2;
#X obj 103 77 inlet;
#X obj 322 339 loadbang;
#X msg 322 364 color 0 0 0;
#X obj 103 131 change 0;
#X obj 103 102 t f f;
#X obj 103 156 pipe 100;
#X obj 193 156 pipe 500;
#X obj 54 406 outlet;
#X obj 54 340 receive-generator;
#X text 53 10 Get the color of the connected TBC and send it out of
the outlet.;
#X connect 0 0 14 0;
#X connect 2 0 1 1;
#X connect 3 0 1 0;
#X connect 3 1 0 0;
#X connect 3 2 14 1;
#X connect 3 3 2 0;
#X connect 4 0 12 0;
#X connect 5 0 13 0;
#X connect 6 0 10 0;
#X connect 7 0 8 0;
#X connect 8 0 13 0;
#X connect 9 0 11 0;
#X connect 10 0 9 0;
#X connect 10 1 4 0;
#X connect 11 0 3 0;
#X connect 12 0 3 0;
#X connect 14 0 5 0;
