#N canvas 375 193 504 516 12;
#X obj 87 32 inlet~;
#X obj 146 57 inlet~;
#X obj 88 431 *~ 1;
#X obj 148 431 *~ 1;
#X obj 350 302 r \$0-clock-time-ms;
#X obj 399 332 r \$0-playing;
#X obj 87 302 *~;
#X obj 147 302 *~;
#X obj 206 302 *~;
#X obj 254 302 *~;
#X obj 235 202 line~;
#X obj 285 202 line~;
#X msg 235 175 \$1 5;
#X msg 285 175 \$1 5;
#X floatatom 270 79 5 0 0 0 - - -;
#X obj 235 112 swap 1;
#X obj 235 141 -;
#X obj 235 79 t f;
#X obj 206 371 fx/fx-comp, f 28;
#X obj 235 45 inlet crossfade-control;
#X obj 88 465 outlet~;
#X obj 148 465 outlet~;
#X connect 0 0 6 0;
#X connect 0 0 8 0;
#X connect 1 0 7 0;
#X connect 1 0 9 0;
#X connect 2 0 20 0;
#X connect 3 0 21 0;
#X connect 4 0 18 3;
#X connect 5 0 18 4;
#X connect 6 0 2 0;
#X connect 7 0 3 0;
#X connect 8 0 18 0;
#X connect 9 0 18 1;
#X connect 10 0 6 1;
#X connect 10 0 7 1;
#X connect 11 0 8 1;
#X connect 11 0 9 1;
#X connect 12 0 10 0;
#X connect 13 0 11 0;
#X connect 15 0 16 0;
#X connect 15 1 16 1;
#X connect 16 0 12 0;
#X connect 17 0 15 0;
#X connect 17 0 13 0;
#X connect 18 0 2 0;
#X connect 18 1 3 0;
#X connect 19 0 14 0;
#X connect 19 0 17 0;
