#N canvas 597 208 692 595 12;
#X obj 76 32 inlet;
#X obj 76 545 outlet;
#X obj 76 484 f;
#X obj 76 125 int;
#X obj 76 150 mod 12;
#X floatatom 21 199 5 0 0 0 - - -, f 5;
#X obj 21 125 / 12;
#X obj 21 150 int;
#X floatatom 76 174 5 0 0 0 - - -, f 5;
#X obj 76 509 *;
#X obj 76 197 sel 0 1 2 3 4 5 6 7 8 9 10 11;
#X obj 76 82 t f f;
#X msg 76 244 55;
#X msg 86 264 58.27;
#X msg 96 284 61.74;
#X msg 106 304 65.41;
#X msg 116 324 69.3;
#X msg 126 344 73.42;
#X msg 136 364 77.78;
#X msg 146 384 82.41;
#X msg 156 404 87.31;
#X msg 166 424 92.5;
#X msg 175 444 98;
#X msg 185 464 103.83;
#X floatatom 137 525 10 0 0 0 - - -, f 10;
#X obj 21 307 pow;
#X floatatom 21 332 5 0 0 0 - - -, f 5;
#X obj 21 231 t b f;
#X msg 21 278 2;
#X text 207 27 Convert 0 - 1 floats from grid knobs into the chromatic
scale starting at A;
#X obj 76 57 * 24;
#X obj 21 175 + 2;
#X connect 0 0 30 0;
#X connect 2 0 9 0;
#X connect 3 0 4 0;
#X connect 4 0 8 0;
#X connect 5 0 27 0;
#X connect 6 0 7 0;
#X connect 7 0 31 0;
#X connect 8 0 10 0;
#X connect 9 0 1 0;
#X connect 9 0 24 0;
#X connect 10 0 12 0;
#X connect 10 1 13 0;
#X connect 10 2 14 0;
#X connect 10 3 15 0;
#X connect 10 4 16 0;
#X connect 10 5 17 0;
#X connect 10 6 18 0;
#X connect 10 7 19 0;
#X connect 10 8 20 0;
#X connect 10 9 21 0;
#X connect 10 10 22 0;
#X connect 10 11 23 0;
#X connect 11 0 3 0;
#X connect 11 1 6 0;
#X connect 12 0 2 0;
#X connect 13 0 2 0;
#X connect 14 0 2 0;
#X connect 15 0 2 0;
#X connect 16 0 2 0;
#X connect 17 0 2 0;
#X connect 18 0 2 0;
#X connect 19 0 2 0;
#X connect 20 0 2 0;
#X connect 21 0 2 0;
#X connect 22 0 2 0;
#X connect 23 0 2 0;
#X connect 25 0 26 0;
#X connect 26 0 9 1;
#X connect 27 0 28 0;
#X connect 27 1 25 1;
#X connect 28 0 25 0;
#X connect 30 0 11 0;
#X connect 31 0 5 0;
