#N canvas 479 251 450 300 10;
#X obj 64 29 inlet bang;
#X obj 148 29 inlet reset;
#X obj 238 29 inlet max;
#X obj 98 97 + 1;
#X obj 64 118 t f f f;
#X msg 148 71 0;
#X obj 192 226 outlet reset;
#X obj 64 226 outlet count;
#X obj 192 189 t b;
#X obj 64 96 f 0;
#X obj 64 51 t b;
#X obj 245 87 f \$1;
#X obj 135 149 - 1;
#X obj 245 60 loadbang;
#X obj 87 169 >=;
#X obj 87 191 sel 1;
#X connect 0 0 10 0;
#X connect 1 0 5 0;
#X connect 2 0 12 0;
#X connect 3 0 9 1;
#X connect 4 0 7 0;
#X connect 4 1 14 0;
#X connect 4 2 3 0;
#X connect 5 0 8 0;
#X connect 5 0 9 1;
#X connect 8 0 6 0;
#X connect 9 0 4 0;
#X connect 10 0 9 0;
#X connect 11 0 12 0;
#X connect 12 0 14 1;
#X connect 13 0 11 0;
#X connect 14 0 15 0;
#X connect 15 0 5 0;
