#N canvas 224 50 1475 928 12;
#X msg 1020 288 traverse \$1 \, bang;
#X msg 1047 169 clear;
#X text 1101 167 Clear the subpatch;
#X obj 1020 235 bng 15 250 50 0 empty empty empty 17 7 0 10 -262144
-1 -1;
#X obj 1020 313 pointer;
#X obj 631 231 t b b;
#N canvas 77 203 450 300 \$0-array-data 0;
#X coords 0 0 40 25 10 10 2 100 100;
#X restore 0 0 pd \$0-array-data;
#N canvas 53 223 558 227 \$0-array-template 0;
#X text 32 138 Scalex is the x spacing. Can be less than 1;
#X obj 19 82 plot array-name rgb thickness 0 0 scalex;
#X obj 19 30 struct \$0-array-template float x float y float rgb float
thickness float scalex array array-name \$0-array1-template;
#X restore 261 285 pd \$0-array-template;
#X obj 1047 199 s pd-\$0-array-data;
#X obj 1020 263 symbol pd-\$0-array-data;
#X obj 581 121 bng 15 250 50 0 empty empty empty 17 7 0 10 -262144
-1 -1;
#X msg 631 316 0;
#N canvas 833 417 450 300 \$0-array1-template 0;
#X obj 25 78 struct \$0-array1-template float y;
#X text 29 193 These represent the points on the array.;
#X text 35 229 filledpolygon 0 0 0 -5 0 0 5 5 0 0 -5;
#X restore 261 305 pd \$0-array1-template;
#X obj 602 372 r \$0-filesize;
#X obj 963 86 r \$0-filesize;
#X obj 581 483 f;
#X floatatom 963 140 5 0 0 0 - - -, f 5;
#X obj 942 291 f;
#X obj 610 207 bng 15 250 50 0 empty empty empty 17 7 0 10 -262144
-1 -1;
#X obj 581 149 t b b b b;
#X floatatom 875 660 5 0 0 1 Resolution - -, f 5;
#X floatatom 581 508 5 0 0 0 - - -, f 5;
#N canvas 382 321 1032 605 display-in-struct 1;
#X obj 511 291 pointer;
#X msg 511 266 traverse \$1 \, next;
#X obj 208 517 element \$0-array-template array-name;
#X obj 511 212 bng 15 250 50 0 empty empty empty 17 7 0 10 -262144
-1 -1;
#X obj 511 240 symbol pd-\$0-array-data;
#X obj 205 329 setsize \$0-array-template array-name;
#X floatatom 205 304 5 0 0 0 Array_size - -, f 5;
#X obj 19 169 until;
#X obj 19 224 f 0;
#X obj 19 547 set \$0-array1-template y;
#X obj 19 194 t b b;
#X obj 40 60 int;
#X obj 583 29 inlet resolution;
#X obj 413 29 inlet starting-point;
#X obj 19 316 t f f;
#X obj 19 489 * 100;
#X obj 19 253 t f f;
#X obj 80 310 == 0;
#X obj 80 283 mod 1;
#X obj 52 224 + 1;
#X obj 19 343 spigot 1;
#X obj 19 139 f;
#X obj 19 457 * -1;
#X obj 19 517 f;
#X obj 97 343 sel 0;
#X obj 40 29 inlet slice-size;
#X obj 179 29 inlet next;
#X obj 273 29 inlet total-size;
#X obj 205 255 f;
#X obj 40 84 t f b b;
#X text 106 156 Resolution determines if the current sample should
be read from the array \, or if it should just copy the previous sample.
This is done using modulus and a spigot;
#X obj 19 432 tabread;
#X msg 39 397 set \$1;
#X obj 727 26 inlet array-name;
#X obj 179 74 t b b;
#X obj 179 99 del 10;
#X obj 208 490 f;
#X obj 97 368 t b b;
#X connect 0 0 2 1;
#X connect 0 0 5 1;
#X connect 1 0 0 0;
#X connect 2 0 9 1;
#X connect 3 0 4 0;
#X connect 4 0 1 0;
#X connect 6 0 5 0;
#X connect 7 0 10 0;
#X connect 8 0 19 0;
#X connect 8 0 16 0;
#X connect 10 0 8 0;
#X connect 11 0 29 0;
#X connect 12 0 18 1;
#X connect 13 0 8 1;
#X connect 14 0 20 0;
#X connect 14 1 36 0;
#X connect 15 0 23 0;
#X connect 16 0 14 0;
#X connect 16 1 18 0;
#X connect 17 0 24 0;
#X connect 17 0 20 1;
#X connect 18 0 17 0;
#X connect 19 0 8 1;
#X connect 20 0 31 0;
#X connect 21 0 7 0;
#X connect 22 0 15 0;
#X connect 23 0 9 0;
#X connect 24 0 37 0;
#X connect 25 0 11 0;
#X connect 26 0 34 0;
#X connect 27 0 28 1;
#X connect 28 0 6 0;
#X connect 29 0 21 1;
#X connect 29 1 28 0;
#X connect 29 2 3 0;
#X connect 31 0 22 0;
#X connect 32 0 31 0;
#X connect 33 0 32 0;
#X connect 34 0 35 0;
#X connect 34 1 3 0;
#X connect 35 0 21 0;
#X connect 36 0 2 0;
#X connect 37 0 23 0;
#X connect 37 1 36 0;
#X restore 588 1000 pd display-in-struct;
#X floatatom 648 593 5 0 0 1 Slices - -, f 5;
#X floatatom 703 655 5 0 0 1 Update_delay - -, f 5;
#X obj 631 815 + 1;
#X obj 600 815 f 1;
#X obj 581 649 / 5;
#X obj 581 869 * 1;
#X obj 600 701 pipe 1;
#X msg 666 914 0;
#X obj 551 674 t f f;
#X obj 581 894 t f f b;
#X msg 875 637 10;
#X obj 1007 443 loadbang;
#X obj 600 728 <;
#X obj 600 753 sel 1;
#X msg 631 788 1, f 2;
#X obj 581 623 t f f b f b;
#X obj 631 341 append \$0-array-template x y rgb thickness scalex;
#X obj 963 110 expr 441 / $f1;
#X text 668 706 Delay so that it doesn't draw the whole array at once
;
#X text 679 843 Find the new start position for each slice by multiplying
the slice size by the current slice index.;
#X msg 648 570 10;
#X obj 786 315 f 900;
#X obj 864 291 f 3;
#X obj 581 7 inlet array-name;
#X obj 504 169 t a;
#X obj 504 922 t a;
#X obj 627 96 array size;
#X obj 627 121 s \$0-filesize;
#X obj 581 59 t b a b a;
#X obj 723 7 inlet waveform-color;
#X obj 600 840 t b f;
#X msg 703 632 10;
#X obj 1047 7 inlet clear;
#X text 5 382 Display the contents of an array using a struct.;
#X text 5 412 The contents of the array are "loaded" in sections to
avoid looping through too many items in the array at once.;
#X text 7 499 Slices: The number of sections to split the array into
;
#X text 7 529 Update_delay: The delay between loading each slice into
the display;
#X text 7 579 Resolution: The accuracy of the displayed data. If the
resolution is 1 \, then it draws every single piece of data from the
array using the struct. If it is 2 \, it draws every other piece of
data twice. If it is 3 \, it draws every 3rd piece of data 3 times.
;
#X text 220 720 0 1 2 3 4 5 6 7 8 9;
#X text 144 720 1;
#X text 220 740 0 0 2 2 4 4 6 6 8 8;
#X text 144 740 2;
#X text 144 760 3;
#X text 220 760 0 0 0 3 3 3 6 6 6 9;
#X text 57 673 Example:;
#X text 82 694 Resolution;
#X text 212 694 Resulting struct array;
#X text 80 800 Note: It does not average the data;
#X text 780 230 Line thickness VVV, f 13;
#X obj 581 454 spigot;
#X obj 602 397 t f f;
#X text 692 425 <--- Max size to display;
#X obj 0 30 cnv 15 15 15 empty \$0-bg-cnv empty 0 0 0 14 -1 -153984
0;
#X obj 667 530 s \$0-bg-cnv;
#X msg 693 479 label empty;
#X obj 667 452 sel 0 1;
#X obj 904 55 s \$0-bg-cnv;
#X msg 904 31 color \$1 \$2 \$2;
#X obj 904 7 inlet cnv-colors;
#X floatatom 671 398 5 0 0 0 - - -, f 5;
#X msg 667 504 label (2BIG2SHOW);
#X obj 626 427 < 50000;
#X obj 1149 64 s \$0-bg-cnv;
#X msg 1149 38 label (DISABLED);
#X obj 1149 7 inlet disabled;
#X msg 708 316 65;
#X connect 0 0 4 0;
#X connect 1 0 8 0;
#X connect 3 0 9 0;
#X connect 4 0 39 5;
#X connect 5 0 11 0;
#X connect 5 1 88 0;
#X connect 5 1 17 0;
#X connect 5 1 44 0;
#X connect 5 1 45 0;
#X connect 9 0 0 0;
#X connect 10 0 19 0;
#X connect 11 0 39 0;
#X connect 13 0 73 0;
#X connect 13 0 82 0;
#X connect 14 0 40 0;
#X connect 15 0 21 0;
#X connect 16 0 17 1;
#X connect 17 0 39 4;
#X connect 18 0 5 0;
#X connect 19 0 72 0;
#X connect 19 1 5 0;
#X connect 19 2 3 0;
#X connect 19 3 1 0;
#X connect 20 0 22 4;
#X connect 21 0 38 0;
#X connect 23 0 27 1;
#X connect 24 0 29 1;
#X connect 25 0 26 1;
#X connect 26 0 25 0;
#X connect 26 0 53 0;
#X connect 27 0 31 0;
#X connect 28 0 32 0;
#X connect 29 0 35 0;
#X connect 30 0 22 3;
#X connect 31 0 28 0;
#X connect 31 1 22 0;
#X connect 32 0 29 0;
#X connect 32 1 22 3;
#X connect 32 2 22 1;
#X connect 33 0 20 0;
#X connect 34 0 43 0;
#X connect 34 0 54 0;
#X connect 34 0 33 0;
#X connect 35 0 36 0;
#X connect 36 0 26 0;
#X connect 37 0 28 1;
#X connect 37 0 25 0;
#X connect 38 0 27 0;
#X connect 38 1 35 1;
#X connect 38 2 37 0;
#X connect 38 3 22 2;
#X connect 38 4 30 0;
#X connect 40 0 16 0;
#X connect 43 0 23 0;
#X connect 44 0 39 2;
#X connect 45 0 39 3;
#X connect 46 0 51 0;
#X connect 47 0 48 0;
#X connect 48 0 22 5;
#X connect 49 0 50 0;
#X connect 51 0 10 0;
#X connect 51 1 47 0;
#X connect 51 2 49 0;
#X connect 51 3 49 1;
#X connect 52 0 44 1;
#X connect 53 0 28 0;
#X connect 53 1 28 1;
#X connect 54 0 24 0;
#X connect 55 0 1 0;
#X connect 55 0 77 0;
#X connect 72 0 15 0;
#X connect 73 0 15 1;
#X connect 73 1 84 0;
#X connect 77 0 76 0;
#X connect 78 0 83 0;
#X connect 78 1 77 0;
#X connect 80 0 79 0;
#X connect 81 0 80 0;
#X connect 83 0 76 0;
#X connect 84 0 72 1;
#X connect 84 0 78 0;
#X connect 86 0 85 0;
#X connect 87 0 86 0;
#X connect 88 0 39 1;
#X coords 0 -1 1 1 150 50 2 0 0;
