#N canvas 737 426 1025 371 12;
#X obj 28 82 inlet;
#X obj 78 82 inlet;
#X obj 128 82 inlet;
#X obj 178 82 inlet;
#X obj 268 82 inlet;
#X obj 318 82 inlet;
#X obj 368 82 inlet;
#X obj 418 82 inlet;
#X obj 508 82 inlet;
#X obj 558 82 inlet;
#X obj 608 82 inlet;
#X obj 658 82 inlet;
#X obj 748 82 inlet;
#X obj 798 82 inlet;
#X obj 848 82 inlet;
#X obj 898 82 inlet;
#X obj 28 322 outlet;
#X obj 78 107 t b f;
#X obj 128 107 t b f;
#X obj 178 107 t b f;
#X obj 268 107 t b f;
#X obj 318 107 t b f;
#X obj 368 107 t b f;
#X obj 418 107 t b f;
#X obj 508 107 t b f;
#X obj 558 107 t b f;
#X obj 608 107 t b f;
#X obj 658 107 t b f;
#X obj 748 107 t b f;
#X obj 798 107 t b f;
#X obj 848 107 t b f;
#X obj 898 107 t b f;
#X obj 28 280 pack f f f f f f f f f f f f f f f f;
#X connect 0 0 32 0;
#X connect 1 0 17 0;
#X connect 2 0 18 0;
#X connect 3 0 19 0;
#X connect 4 0 20 0;
#X connect 5 0 21 0;
#X connect 6 0 22 0;
#X connect 7 0 23 0;
#X connect 8 0 24 0;
#X connect 9 0 25 0;
#X connect 10 0 26 0;
#X connect 11 0 27 0;
#X connect 12 0 28 0;
#X connect 13 0 29 0;
#X connect 14 0 30 0;
#X connect 15 0 31 0;
#X connect 17 0 32 0;
#X connect 17 1 32 1;
#X connect 18 0 32 0;
#X connect 18 1 32 2;
#X connect 19 0 32 0;
#X connect 19 1 32 3;
#X connect 20 0 32 0;
#X connect 20 1 32 4;
#X connect 21 0 32 0;
#X connect 21 1 32 5;
#X connect 22 0 32 0;
#X connect 22 1 32 6;
#X connect 23 0 32 0;
#X connect 23 1 32 7;
#X connect 24 0 32 0;
#X connect 24 1 32 8;
#X connect 25 0 32 0;
#X connect 25 1 32 9;
#X connect 26 0 32 0;
#X connect 26 1 32 10;
#X connect 27 0 32 0;
#X connect 27 1 32 11;
#X connect 28 0 32 0;
#X connect 28 1 32 12;
#X connect 29 0 32 0;
#X connect 29 1 32 13;
#X connect 30 0 32 0;
#X connect 30 1 32 14;
#X connect 31 0 32 0;
#X connect 31 1 32 15;
#X connect 32 0 16 0;
