#N canvas 737 426 1045 425 12;
#X obj 51 25 inlet;
#X obj 51 50 t f b;
#X msg 88 208 0, f 1;
#X obj 88 307 t f;
#X obj 51 177 t f;
#X obj 101 25 inlet;
#X obj 101 50 t f b;
#X msg 138 208 1, f 1;
#X obj 151 25 inlet;
#X obj 151 50 t f b;
#X msg 188 208 2, f 1;
#X obj 201 25 inlet;
#X obj 201 50 t f b;
#X obj 291 25 inlet;
#X obj 291 50 t f b;
#X obj 328 287 t f;
#X obj 291 157 t f;
#X obj 341 25 inlet;
#X obj 341 50 t f b;
#X obj 391 25 inlet;
#X obj 391 50 t f b;
#X obj 441 25 inlet;
#X obj 441 50 t f b;
#X obj 531 25 inlet;
#X obj 531 50 t f b;
#X obj 568 267 t f;
#X obj 531 137 t f;
#X obj 581 25 inlet;
#X obj 581 50 t f b;
#X obj 631 25 inlet;
#X obj 631 50 t f b;
#X obj 681 25 inlet;
#X obj 681 50 t f b;
#X obj 771 25 inlet;
#X obj 771 50 t f b;
#X obj 808 247 t f;
#X obj 771 117 t f;
#X obj 821 25 inlet;
#X obj 821 50 t f b;
#X obj 871 25 inlet;
#X obj 871 50 t f b;
#X obj 921 25 inlet;
#X obj 921 50 t f b;
#X msg 238 208 3, f 1;
#X msg 328 208 4, f 1;
#X msg 378 208 5, f 1;
#X msg 428 208 6, f 1;
#X msg 478 208 7, f 1;
#X msg 568 208 8, f 1;
#X msg 618 208 9, f 1;
#X msg 668 208 10, f 2;
#X msg 718 208 11, f 2;
#X msg 808 208 12, f 2;
#X msg 858 208 13, f 2;
#X msg 908 208 14, f 2;
#X msg 958 208 15, f 2;
#X obj 88 337 outlet;
#X obj 51 370 outlet;
#X connect 0 0 1 0;
#X connect 1 0 4 0;
#X connect 1 1 2 0;
#X connect 2 0 3 0;
#X connect 3 0 56 0;
#X connect 4 0 57 0;
#X connect 5 0 6 0;
#X connect 6 0 4 0;
#X connect 6 1 7 0;
#X connect 7 0 3 0;
#X connect 8 0 9 0;
#X connect 9 0 4 0;
#X connect 9 1 10 0;
#X connect 10 0 3 0;
#X connect 11 0 12 0;
#X connect 12 0 4 0;
#X connect 12 1 43 0;
#X connect 13 0 14 0;
#X connect 14 0 16 0;
#X connect 14 1 44 0;
#X connect 15 0 3 0;
#X connect 16 0 4 0;
#X connect 17 0 18 0;
#X connect 18 0 16 0;
#X connect 18 1 45 0;
#X connect 19 0 20 0;
#X connect 20 0 16 0;
#X connect 20 1 46 0;
#X connect 21 0 22 0;
#X connect 22 0 16 0;
#X connect 22 1 47 0;
#X connect 23 0 24 0;
#X connect 24 0 26 0;
#X connect 24 1 48 0;
#X connect 25 0 15 0;
#X connect 26 0 16 0;
#X connect 27 0 28 0;
#X connect 28 0 26 0;
#X connect 28 1 49 0;
#X connect 29 0 30 0;
#X connect 30 0 26 0;
#X connect 30 1 50 0;
#X connect 31 0 32 0;
#X connect 32 0 26 0;
#X connect 32 1 51 0;
#X connect 33 0 34 0;
#X connect 34 0 36 0;
#X connect 34 1 52 0;
#X connect 35 0 25 0;
#X connect 36 0 26 0;
#X connect 37 0 38 0;
#X connect 38 0 36 0;
#X connect 38 1 53 0;
#X connect 39 0 40 0;
#X connect 40 0 36 0;
#X connect 40 1 54 0;
#X connect 41 0 42 0;
#X connect 42 0 36 0;
#X connect 42 1 55 0;
#X connect 43 0 3 0;
#X connect 44 0 15 0;
#X connect 45 0 15 0;
#X connect 46 0 15 0;
#X connect 47 0 15 0;
#X connect 48 0 25 0;
#X connect 49 0 25 0;
#X connect 50 0 25 0;
#X connect 51 0 25 0;
#X connect 52 0 35 0;
#X connect 53 0 35 0;
#X connect 54 0 35 0;
#X connect 55 0 35 0;
