#N canvas 1124 466 741 402 12;
#X obj 85 198 change;
#X obj 85 277 f;
#X obj 85 223 t b;
#X obj 69 97 t f f;
#X obj 127 123 t f f;
#X obj 69 22 inlet;
#X obj 85 332 outlet;
#X obj 127 22 inlet;
#X text 227 33 Check that a value has changed between two different
sources. This was designed to prevent a feedback loop because the output
is connected to the input through sends elsewhere in the patch.;
#X floatatom 135 51 5 0 0 0 - - -, f 5;
#X floatatom 75 50 5 0 0 0 - - -, f 5;
#X floatatom 109 309 5 0 0 0 - - -, f 5;
#X connect 0 0 2 0;
#X connect 1 0 6 0;
#X connect 1 0 11 0;
#X connect 2 0 1 0;
#X connect 3 0 0 0;
#X connect 3 1 1 1;
#X connect 4 0 0 0;
#X connect 4 1 1 1;
#X connect 5 0 3 0;
#X connect 5 0 10 0;
#X connect 7 0 4 0;
#X connect 7 0 9 0;
