#N canvas -30 471 577 497 12;
#X text 42 15 Effect 0 is an pitch modification \, so it is applied
within the "samples -> pd-all-16-samplers" subpatch;
#X obj 305 106 loadbang;
#X msg 305 131 -1;
#X text 308 80 Loadbang -1 so we start with no FX applied;
#N canvas 1219 179 603 682 fx-4-7 0;
#X obj 56 113 inlet~;
#X obj 81 778 outlet~;
#X floatatom 322 52 5 0 0 0 - - -, f 5;
#X msg 196 166 1, f 1;
#X msg 246 166 1, f 1;
#X msg 296 166 1, f 1;
#X msg 146 166 1, f 1;
#X obj 146 142 sel 4;
#X obj 196 142 sel 5;
#X obj 246 142 sel 6;
#X obj 296 142 sel 7;
#X obj 201 277 *~;
#X msg 222 250 0;
#X obj 255 297 *~;
#X msg 276 270 0;
#X obj 309 317 *~;
#X msg 330 290 0;
#X obj 151 257 *~;
#X msg 172 230 0;
#X obj 150 488 fx/data-op-fx-4;
#X obj 200 508 fx/data-op-fx-5;
#X obj 254 528 fx/data-op-fx-6;
#X obj 308 658 fx/data-op-fx-7;
#X obj 322 22 inlet;
#X obj 395 605 r \$0-current-step;
#X obj 366 582 r \$0-clock-time-ms;
#X obj 425 628 r \$0-play-btn-s;
#X obj 267 351 r \$0-fx-parameter-4;
#X obj 317 381 r \$0-fx-parameter-5;
#X obj 371 421 r \$0-fx-parameter-6;
#X obj 337 558 r \$0-fx-parameter-7;
#X obj 267 431 + 1;
#X obj 267 406 * 50;
#X obj 317 441 * 20;
#X obj 371 487 exp;
#X obj 371 462 * 6;
#X obj 337 621 * 4;
#X connect 0 0 17 0;
#X connect 0 0 11 0;
#X connect 0 0 13 0;
#X connect 0 0 15 0;
#X connect 2 0 7 0;
#X connect 2 0 8 0;
#X connect 2 0 9 0;
#X connect 2 0 10 0;
#X connect 3 0 11 1;
#X connect 4 0 13 1;
#X connect 5 0 15 1;
#X connect 6 0 17 1;
#X connect 7 0 6 0;
#X connect 7 1 18 0;
#X connect 8 0 3 0;
#X connect 8 1 12 0;
#X connect 9 0 4 0;
#X connect 9 1 14 0;
#X connect 10 0 5 0;
#X connect 10 1 16 0;
#X connect 11 0 20 0;
#X connect 12 0 11 1;
#X connect 13 0 21 0;
#X connect 14 0 13 1;
#X connect 15 0 22 0;
#X connect 16 0 15 1;
#X connect 17 0 19 0;
#X connect 18 0 17 1;
#X connect 19 0 1 0;
#X connect 20 0 1 0;
#X connect 21 0 1 0;
#X connect 22 0 1 0;
#X connect 23 0 2 0;
#X connect 24 0 22 3;
#X connect 25 0 22 2;
#X connect 26 0 22 4;
#X connect 27 0 32 0;
#X connect 28 0 33 0;
#X connect 29 0 35 0;
#X connect 30 0 36 0;
#X connect 31 0 19 1;
#X connect 32 0 31 0;
#X connect 33 0 20 1;
#X connect 34 0 21 1;
#X connect 35 0 34 0;
#X connect 36 0 22 1;
#X restore 63 242 pd fx-4-7;
#X obj 52 166 inlet~;
#X obj 54 356 outlet~;
#X floatatom 163 151 5 0 0 0 - - -, f 5;
#N canvas 865 121 716 746 fx-8-11 0;
#X obj 55 131 inlet~;
#X obj 56 696 outlet~;
#X floatatom 321 70 5 0 0 0 - - -, f 5;
#X msg 205 184 1, f 1;
#X msg 265 184 1, f 1;
#X msg 145 184 1, f 1;
#X obj 200 295 *~;
#X msg 221 268 0;
#X obj 254 315 *~;
#X msg 275 288 0;
#X obj 150 275 *~;
#X msg 171 248 0;
#X obj 321 40 inlet;
#X obj 388 486 r \$0-clock-time-ms;
#X obj 145 160 sel 8;
#X obj 206 160 sel 9;
#X obj 266 160 sel 10;
#X msg 325 184 1, f 1;
#X obj 314 335 *~;
#X msg 335 308 0;
#X obj 326 160 sel 11;
#X obj 149 506 fx/data-op-fx-8;
#X obj 201 526 fx/data-op-fx-9;
#X obj 253 626 fx/data-op-fx-10;
#X obj 315 651 fx/data-op-fx-11;
#X floatatom 437 450 5 0 0 0 - - -, f 5;
#X obj 440 435 hsl 128 15 0 10 0 0 empty empty Delay_(tempo_multiplier)
-2 -8 0 10 -262144 -1 -1 0 1;
#X obj 207 386 r \$0-fx-parameter-8;
#X obj 418 268 r \$0-fx-parameter-9;
#X obj 441 323 loadbang;
#X obj 444 390 hsl 128 15 0 1 0 0 empty empty Feedback -2 -8 0 10 -262144
-1 -1 9525 1;
#X msg 441 351 0.75;
#X obj 418 293 * 5;
#X obj 207 419 * 32;
#X obj 378 538 r \$0-fx-parameter-10;
#X obj 378 588 + 25;
#X obj 378 563 * 500;
#X obj 440 594 * 5000;
#X obj 440 619 + 50;
#X obj 440 569 r \$0-fx-parameter-11;
#X connect 0 0 10 0;
#X connect 0 0 6 0;
#X connect 0 0 8 0;
#X connect 0 0 18 0;
#X connect 2 0 14 0;
#X connect 2 0 15 0;
#X connect 2 0 16 0;
#X connect 2 0 20 0;
#X connect 3 0 6 1;
#X connect 4 0 8 1;
#X connect 5 0 10 1;
#X connect 6 0 22 0;
#X connect 7 0 6 1;
#X connect 8 0 23 0;
#X connect 9 0 8 1;
#X connect 10 0 21 0;
#X connect 11 0 10 1;
#X connect 12 0 2 0;
#X connect 13 0 21 2;
#X connect 13 0 22 3;
#X connect 14 0 5 0;
#X connect 14 1 11 0;
#X connect 15 0 3 0;
#X connect 15 1 7 0;
#X connect 16 0 4 0;
#X connect 16 1 9 0;
#X connect 17 0 18 1;
#X connect 18 0 24 0;
#X connect 19 0 18 1;
#X connect 20 0 17 0;
#X connect 20 1 19 0;
#X connect 21 0 1 0;
#X connect 22 0 1 0;
#X connect 23 0 1 0;
#X connect 24 0 1 0;
#X connect 25 0 22 2;
#X connect 26 0 25 0;
#X connect 27 0 33 0;
#X connect 28 0 32 0;
#X connect 29 0 31 0;
#X connect 30 0 22 1;
#X connect 31 0 30 0;
#X connect 32 0 26 0;
#X connect 33 0 21 1;
#X connect 34 0 36 0;
#X connect 35 0 23 1;
#X connect 36 0 35 0;
#X connect 37 0 38 0;
#X connect 38 0 24 1;
#X connect 39 0 37 0;
#X restore 73 272 pd fx-8-11;
#N canvas 988 154 842 682 fx-12-15 0;
#X obj 46 113 inlet~;
#X obj 47 618 outlet~;
#X floatatom 312 52 5 0 0 0 - - -, f 5;
#X msg 196 166 1, f 1;
#X msg 256 166 1, f 1;
#X msg 136 166 1, f 1;
#X obj 191 277 *~;
#X msg 212 250 0;
#X obj 245 297 *~;
#X msg 266 270 0;
#X obj 141 257 *~;
#X msg 162 230 0;
#X obj 489 409 r \$0-clock-time-ms;
#X obj 462 342 sel 0;
#X msg 462 367 0;
#X obj 462 317 r \$0-play-btn-s;
#X obj 312 22 inlet;
#X obj 512 466 / 5;
#X obj 512 491 * 3;
#X text 445 282 When play button is turned off \, stop stutter;
#X obj 136 142 sel 12;
#X obj 196 142 sel 13;
#X obj 256 142 sel 14;
#X obj 140 488 fx/data-op-fx-12;
#X obj 190 508 fx/data-op-fx-13;
#X obj 244 528 fx/data-op-fx-14;
#X obj 474 466 / 2;
#X floatatom 519 438 5 0 0 0 - - -, f 5;
#X text 281 594 FX 15 is dry signal!;
#X obj 209 371 r \$0-fx-parameter-13;
#X obj 209 396 * 2;
#X obj 269 429 * 2;
#X obj 269 404 r \$0-fx-parameter-14;
#X obj 158 339 r \$0-fx-parameter-12;
#X obj 158 367 * 8;
#X obj 158 392 + 1;
#X floatatom 158 417 5 0 0 0 - - -, f 5;
#X connect 0 0 10 0;
#X connect 0 0 6 0;
#X connect 0 0 8 0;
#X connect 2 0 20 0;
#X connect 2 0 21 0;
#X connect 2 0 22 0;
#X connect 3 0 6 1;
#X connect 3 0 24 2;
#X connect 4 0 8 1;
#X connect 4 0 25 2;
#X connect 5 0 10 1;
#X connect 6 0 24 0;
#X connect 7 0 6 1;
#X connect 7 0 24 2;
#X connect 8 0 25 0;
#X connect 9 0 8 1;
#X connect 9 0 25 2;
#X connect 10 0 23 0;
#X connect 11 0 10 1;
#X connect 12 0 26 0;
#X connect 12 0 27 0;
#X connect 12 0 23 2;
#X connect 13 0 14 0;
#X connect 14 0 24 2;
#X connect 14 0 25 2;
#X connect 15 0 13 0;
#X connect 16 0 2 0;
#X connect 17 0 18 0;
#X connect 20 0 5 0;
#X connect 20 1 11 0;
#X connect 21 0 3 0;
#X connect 21 1 7 0;
#X connect 22 0 4 0;
#X connect 22 1 9 0;
#X connect 23 0 1 0;
#X connect 24 0 1 0;
#X connect 25 0 1 0;
#X connect 26 0 25 3;
#X connect 26 0 24 3;
#X connect 29 0 30 0;
#X connect 30 0 24 1;
#X connect 31 0 25 1;
#X connect 32 0 31 0;
#X connect 33 0 34 0;
#X connect 34 0 35 0;
#X connect 35 0 23 1;
#X connect 35 0 36 0;
#X restore 83 302 pd fx-12-15;
#N canvas 681 195 1026 758 fx-0-3 0;
#X obj 74 258 inlet~;
#X obj 75 693 outlet~;
#X obj 124 595 fx/data-op-fx-1;
#X obj 125 364 *~;
#X floatatom 281 142 5 0 0 0 - - -, f 5;
#X obj 75 336 *~;
#X msg 146 337 0;
#X obj 179 384 *~;
#X msg 200 357 0;
#X obj 279 227 sel 1;
#X msg 206 256 1;
#X obj 329 227 sel 2;
#X msg 279 251 1, f 1;
#X msg 329 251 1, f 1;
#X msg 379 251 1, f 1;
#X obj 379 227 sel 3;
#X obj 233 404 *~;
#X msg 254 377 0;
#X obj 178 615 fx/data-op-fx-2;
#X obj 232 665 fx/data-op-fx-3;
#X obj 281 108 inlet;
#X text 46 17 Effect 0 is an pitch modification \, so it is applied
within the "samples -> pd-all-16-samplers" subpatch;
#X obj 86 157 sel 0 15;
#X obj 179 184 > 15;
#X obj 147 184 < 0;
#X obj 147 209 ||;
#X text 46 55 Any FX input out of bounds sends dry signal;
#X obj 241 466 r \$0-fx-parameter-1;
#X obj 295 554 r \$0-fx-parameter-2;
#X obj 349 584 r \$0-fx-parameter-3;
#X obj 241 547 * 30;
#X obj 241 572 + 10;
#X obj 241 497 swap 1;
#X obj 241 522 -;
#X obj 349 614 * 4000;
#X obj 349 639 + 100;
#X obj 575 393 r \$0-fx-parameter-0;
#X obj 575 617 s \$0-fx-0-pitch;
#X text 568 365 FX 0 pitch adjustment;
#X obj 575 582 clip 0.125 4;
#X floatatom 575 503 10 0 0 0 - - -, f 10;
#X obj 575 530 pow;
#X obj 669 485 loadbang;
#X msg 669 510 2;
#X obj 575 446 -;
#X obj 575 418 swap 1;
#X floatatom 575 555 5 0 0 0 - - -, f 5;
#X obj 575 475 * 2;
#X connect 0 0 5 0;
#X connect 0 0 3 0;
#X connect 0 0 7 0;
#X connect 0 0 16 0;
#X connect 2 0 1 0;
#X connect 3 0 2 0;
#X connect 4 0 9 0;
#X connect 4 0 11 0;
#X connect 4 0 15 0;
#X connect 4 0 22 0;
#X connect 5 0 1 0;
#X connect 6 0 3 1;
#X connect 7 0 18 0;
#X connect 8 0 7 1;
#X connect 9 0 12 0;
#X connect 9 1 6 0;
#X connect 10 0 5 1;
#X connect 11 0 13 0;
#X connect 11 1 8 0;
#X connect 12 0 3 1;
#X connect 13 0 7 1;
#X connect 14 0 16 1;
#X connect 15 0 14 0;
#X connect 15 1 17 0;
#X connect 16 0 19 0;
#X connect 17 0 16 1;
#X connect 18 0 1 0;
#X connect 19 0 1 0;
#X connect 20 0 4 0;
#X connect 22 0 10 0;
#X connect 22 1 10 0;
#X connect 22 2 24 0;
#X connect 22 2 23 0;
#X connect 23 0 25 1;
#X connect 24 0 25 0;
#X connect 25 0 5 1;
#X connect 27 0 32 0;
#X connect 28 0 18 1;
#X connect 29 0 34 0;
#X connect 30 0 31 0;
#X connect 31 0 2 1;
#X connect 32 0 33 0;
#X connect 32 1 33 1;
#X connect 33 0 30 0;
#X connect 34 0 35 0;
#X connect 35 0 19 1;
#X connect 36 0 45 0;
#X connect 39 0 37 0;
#X connect 40 0 41 0;
#X connect 41 0 46 0;
#X connect 42 0 43 0;
#X connect 43 0 41 1;
#X connect 44 0 47 0;
#X connect 45 0 44 0;
#X connect 45 1 44 1;
#X connect 46 0 39 0;
#X connect 47 0 40 0;
#X restore 53 212 pd fx-0-3;
#X obj 163 117 inlet current-fx;
#X connect 1 0 2 0;
#X connect 2 0 7 0;
#X connect 4 0 6 0;
#X connect 5 0 10 0;
#X connect 5 0 4 0;
#X connect 5 0 8 0;
#X connect 5 0 9 0;
#X connect 7 0 10 1;
#X connect 7 0 4 1;
#X connect 7 0 8 1;
#X connect 7 0 9 1;
#X connect 8 0 6 0;
#X connect 9 0 6 0;
#X connect 10 0 6 0;
#X connect 11 0 7 0;
