#N canvas 617 124 518 573 12;
#X obj 60 83 list fromsymbol;
#X obj 151 280 list split 1;
#X obj 119 177 until;
#X obj 151 255 list append;
#X obj 287 217 bang;
#X obj 114 230 counter 999999, f 19;
#X obj 119 144 t b b l b;
#X obj 119 201 t b b;
#X obj 96 349 f;
#X obj 151 320 sel 47;
#X obj 60 111 t a a;
#X obj 60 411 list split;
#X obj 60 459 list tosymbol;
#X obj 60 19 inlet path;
#X obj 60 490 outlet path-to-folder;
#X text 210 320 <-- 47 is the character for /;
#X text 241 178 Find last index of /;
#X text 152 410 <-- Split at last /;
#X obj 96 373 + 1;
#X connect 0 0 10 0;
#X connect 1 0 9 0;
#X connect 1 1 3 1;
#X connect 1 2 4 0;
#X connect 2 0 7 0;
#X connect 3 0 1 0;
#X connect 4 0 2 1;
#X connect 5 0 8 1;
#X connect 6 0 2 0;
#X connect 6 2 3 1;
#X connect 6 3 5 1;
#X connect 7 0 3 0;
#X connect 7 1 5 0;
#X connect 8 0 18 0;
#X connect 9 0 8 0;
#X connect 10 0 11 0;
#X connect 10 1 6 0;
#X connect 11 0 12 0;
#X connect 12 0 14 0;
#X connect 13 0 0 0;
#X connect 18 0 11 1;
