#N canvas 431 306 792 549 12;
#X obj 484 158 f \$0;
#X msg 485 384 \; \$3 obj 10 10 r \$2-\$1;
#X obj 484 208 symbol;
#X obj 422 313 t a a a a a;
#X msg 443 488 \; \$3 connect 0 0 1 0;
#X obj 629 195 outlet;
#X msg 507 340 \; \$3 clear;
#X obj 422 258 pack s f s f;
#X msg 464 434 \; \$3 obj 10 40 s \$4-outlet;
#N canvas 13 498 450 116 \$0-receiver 1;
#X obj 10 10 r 20-0-current-sample-patch-id;
#X obj 10 40 s 1218-outlet;
#X connect 0 0 1 0;
#X restore 629 133 pd \$0-receiver;
#X msg 484 183 pd-\$1-receiver;
#X obj 629 161 r \$0-outlet;
#X text 23 5 This patch will use dynamic patching to create a receive
object \, since you can not normally change the name of a receive once
it is created.;
#X text 44 67 First inlet is name of receive to generate;
#X text 20 517 megalon 2017;
#X text 44 97 Second inlet is the patch id (\$0);
#X obj 422 69 inlet receive-name;
#X obj 453 99 inlet patch-id;
#X obj 453 124 t f b;
#X connect 0 0 10 0;
#X connect 0 0 7 3;
#X connect 2 0 7 2;
#X connect 3 1 4 0;
#X connect 3 2 8 0;
#X connect 3 3 1 0;
#X connect 3 4 6 0;
#X connect 7 0 3 0;
#X connect 10 0 2 0;
#X connect 11 0 5 0;
#X connect 16 0 7 0;
#X connect 17 0 18 0;
#X connect 18 0 7 1;
#X connect 18 1 0 0;
