#N canvas 475 146 1002 726 12;
#X obj 266 70 send~ \$0-temp;
#X obj 91 223 receive~ \$0-temp;
#X obj 157 263 receive~ \$0-temp;
#X obj 91 31 inlet;
#X msg 91 130 set \$1-audio-out-L-\$2;
#X msg 157 155 set \$1-audio-out-R-\$2;
#X obj 91 63 pack f \$1;
#X text 213 47 Get rid of console errors;
#X msg 475 531 stop \, open \$1;
#X msg 456 277 start;
#X msg 390 278 stop;
#X obj 353 645 outlet done;
#X obj 353 199 t b b;
#X obj 91 635 writesf~ 2;
#X obj 595 491 symbol;
#X obj 595 645 outlet filename;
#X obj 635 114 inlet file-path;
#X obj 456 197 t b b;
#X obj 611 531 print recording-sound;
#X obj 397 126 sel 0 1;
#X obj 397 102 inlet start-stop;
#X obj 635 379 makefilename %s-sound-\$1.wav;
#X obj 635 327 symbol;
#X connect 1 0 13 0;
#X connect 2 0 13 1;
#X connect 3 0 6 0;
#X connect 4 0 1 0;
#X connect 5 0 2 0;
#X connect 6 0 4 0;
#X connect 6 0 5 0;
#X connect 8 0 13 0;
#X connect 9 0 13 0;
#X connect 10 0 13 0;
#X connect 12 0 11 0;
#X connect 12 1 10 0;
#X connect 14 0 8 0;
#X connect 14 0 15 0;
#X connect 14 0 18 0;
#X connect 16 0 22 0;
#X connect 17 0 9 0;
#X connect 17 1 14 0;
#X connect 19 0 12 0;
#X connect 19 1 17 0;
#X connect 20 0 19 0;
#X connect 21 0 14 1;
#X connect 22 0 21 0;
