#N canvas 971 339 609 405 12;
#X obj 43 155 line~;
#X obj 43 210 *~;
#X obj 43 115 pack 1 0;
#X obj 43 235 +~ 0;
#X obj 43 86 t b b;
#X msg 114 115 0;
#X obj 43 314 outlet~;
#X obj 43 52 inlet bang;
#X obj 143 52 inlet length-ms;
#X obj 262 52 inlet start-offset-ms;
#X obj 205 314 outlet~;
#X obj 433 52 inlet stereo-check;
#N canvas 1103 442 327 346 play-right-channel 0;
#X obj 50 151 *~ 0;
#X obj 51 283 outlet~;
#X obj 51 49 inlet~;
#X obj 120 50 inlet;
#X obj 120 111 switch~;
#X obj 50 192 tabread4~ \$1-sample-R;
#X connect 0 0 5 0;
#X connect 2 0 0 0;
#X connect 3 0 0 1;
#X connect 3 0 4 0;
#X connect 5 0 1 0;
#X restore 205 290 pd play-right-channel;
#X obj 61 185 r \$1-sample-size;
#X obj 43 290 tabread4~ \$1-sample-L;
#X connect 0 0 1 0;
#X connect 1 0 3 0;
#X connect 2 0 0 0;
#X connect 3 0 12 0;
#X connect 3 0 14 0;
#X connect 4 0 2 0;
#X connect 4 1 5 0;
#X connect 5 0 0 0;
#X connect 7 0 4 0;
#X connect 8 0 2 1;
#X connect 9 0 3 1;
#X connect 11 0 12 1;
#X connect 12 0 10 0;
#X connect 13 0 1 1;
#X connect 14 0 6 0;
