#N canvas 133 133 1193 769 12;
#X obj 47 12 inlet current-step;
#X obj 87 159 bng 15 250 50 0 empty empty empty 17 7 0 10 -262144 -1
-1;
#X obj 47 341 spigot;
#X obj 199 341 spigot;
#X msg 207 228 1;
#X obj 423 12 inlet load;
#X msg 244 228 0;
#X msg 163 229 1;
#X obj 207 202 t b b;
#X msg 129 229 0;
#N canvas 619 50 1142 613 gates 0;
#X obj 41 49 inlet current-step;
#X obj 619 47 inlet packed-seq;
#X obj 339 201 outlet packed-seq;
#X obj 302 48 inlet get-all;
#X text 44 327 Create the array without the GUI;
#X obj 530 201 outlet done;
#X obj 302 133 t b a;
#X obj 302 108 array get \$0-seq-gate-array 0 -1;
#X obj 619 108 array set \$0-seq-gate-array;
#X obj 45 294 array define \$0-seq-gate-array 16;
#X obj 41 192 outlet gate;
#X obj 41 109 array get \$0-seq-gate-array 0 1;
#X connect 0 0 11 0;
#X connect 1 0 8 0;
#X connect 3 0 7 0;
#X connect 6 0 5 0;
#X connect 6 1 2 0;
#X connect 7 0 6 0;
#X connect 11 0 10 0;
#X restore 47 182 pd gates;
#N canvas 45 552 873 364 pitch 0;
#X obj 31 49 inlet current-step;
#X obj 619 47 inlet packed-seq;
#X obj 339 201 outlet packed-seq;
#X obj 31 192 outlet pitch;
#X obj 45 294 array define \$0-seq-pitch-array 16;
#X obj 302 48 inlet get-all;
#X obj 302 108 array get \$0-seq-pitch-array 0 -1;
#X obj 619 105 array set \$0-seq-pitch-array;
#X text 44 327 Create the array without the GUI;
#X obj 530 201 outlet done;
#X obj 302 133 t b a;
#X obj 31 109 array get \$0-seq-pitch-array 0 1;
#X connect 0 0 11 0;
#X connect 1 0 7 0;
#X connect 5 0 6 0;
#X connect 6 0 10 0;
#X connect 10 0 9 0;
#X connect 10 1 2 0;
#X connect 11 0 3 0;
#X restore 469 187 pd pitch;
#X obj 199 521 outlet packed-gate-sequence;
#X obj 469 521 outlet pitch;
#X text 88 601 When load is triggered \, it sends the packed sequences
to the the packed-sequence outlets;
#X obj 47 525 outlet gate;
#X obj 530 10 inlet packed-pitch-seq;
#X obj 221 12 inlet packed-gate-seq;
#X obj 499 164 bng 15 250 50 0 empty empty empty 17 7 0 10 -262144
-1 -1;
#X msg 628 233 1;
#X msg 665 233 0;
#X obj 628 207 t b b;
#X obj 469 330 spigot;
#X obj 620 330 spigot;
#X obj 207 175 loadbang;
#X obj 628 179 loadbang;
#X obj 469 280 convert-to-chromatic-scale;
#X text 89 679 The pitch is actually stored as the knob positions \,
so we need to convert that to the chromatic scale.;
#X obj 620 521 outlet packed-pitch-sequence;
#N canvas 42 510 908 422 retrig 0;
#X obj 41 49 inlet current-step;
#X obj 639 47 inlet packed-seq;
#X obj 359 201 outlet packed-seq;
#X obj 322 48 inlet get-all;
#X text 44 327 Create the array without the GUI;
#X obj 550 201 outlet done;
#X obj 322 133 t b a;
#X obj 41 109 array get \$0-seq-retrig-array 0 1;
#X obj 322 108 array get \$0-seq-retrig-array 0 -1;
#X obj 639 108 array set \$0-seq-retrig-array;
#X obj 45 294 array define \$0-seq-retrig-array 16;
#X obj 41 192 outlet retrig;
#X connect 0 0 7 0;
#X connect 1 0 9 0;
#X connect 3 0 8 0;
#X connect 6 0 5 0;
#X connect 6 1 2 0;
#X connect 7 0 11 0;
#X connect 8 0 6 0;
#X restore 799 174 pd retrig;
#N canvas 396 223 560 623 apply-retrig 0;
#X obj 55 517 outlet;
#X obj 459 26 inlet clock-time-ms;
#X obj 156 30 inlet current-retrig;
#X obj 18 36 inlet gate;
#X obj 75 164 sel 1;
#X obj 135 234 pack f 1;
#X obj 135 205 f;
#X obj 18 61 t f f;
#X msg 67 492 1;
#N canvas 919 639 450 300 (subpatch) 0;
#X obj 74 49 inlet;
#X obj 74 214 outlet;
#X obj 74 155 del;
#X obj 148 49 inlet clock-time-ms;
#X obj 95 122 f;
#X obj 74 74 t b b;
#X obj 116 155 del;
#X obj 137 122 f;
#X obj 158 99 * 2;
#X obj 148 74 / 4;
#X obj 156 155 del;
#X obj 177 122 f;
#X obj 198 99 * 3;
#X connect 0 0 5 0;
#X connect 2 0 1 0;
#X connect 3 0 9 0;
#X connect 4 0 2 1;
#X connect 5 0 2 0;
#X connect 5 0 6 0;
#X connect 5 0 10 0;
#X connect 5 1 4 0;
#X connect 5 1 7 0;
#X connect 5 1 11 0;
#X connect 6 0 1 0;
#X connect 7 0 6 1;
#X connect 8 0 7 1;
#X connect 9 0 4 1;
#X connect 9 0 8 0;
#X connect 9 0 12 0;
#X connect 10 0 1 0;
#X connect 11 0 10 1;
#X connect 12 0 11 1;
#X restore 202 352 pd 4;
#N canvas 124 603 450 300 (subpatch) 0;
#X obj 74 49 inlet;
#X obj 74 174 outlet;
#X obj 74 143 del;
#X obj 148 49 inlet clock-time-ms;
#X obj 148 74 / 2;
#X obj 95 120 f;
#X obj 74 74 t b b;
#X connect 0 0 6 0;
#X connect 2 0 1 0;
#X connect 3 0 4 0;
#X connect 4 0 5 1;
#X connect 5 0 2 1;
#X connect 6 0 2 0;
#X connect 6 1 5 0;
#X restore 157 292 pd 2;
#N canvas 891 600 450 300 (subpatch) 0;
#X obj 74 49 inlet;
#X obj 74 244 outlet;
#X obj 74 185 del;
#X obj 148 49 inlet clock-time-ms;
#X obj 95 152 f;
#X obj 74 74 t b b;
#X obj 116 185 del;
#X obj 137 152 f;
#X obj 158 129 * 2;
#X obj 156 185 del;
#X obj 177 152 f;
#X obj 198 129 * 3;
#X obj 148 74 / 8;
#X obj 196 185 del;
#X obj 217 152 f;
#X obj 236 185 del;
#X obj 257 152 f;
#X obj 238 129 * 4;
#X obj 278 129 * 5;
#X obj 276 185 del;
#X obj 297 152 f;
#X obj 316 185 del;
#X obj 337 152 f;
#X obj 318 129 * 6;
#X obj 358 129 * 7;
#X connect 0 0 5 0;
#X connect 2 0 1 0;
#X connect 3 0 12 0;
#X connect 4 0 2 1;
#X connect 5 0 2 0;
#X connect 5 0 6 0;
#X connect 5 0 9 0;
#X connect 5 0 13 0;
#X connect 5 0 15 0;
#X connect 5 0 19 0;
#X connect 5 0 21 0;
#X connect 5 1 4 0;
#X connect 5 1 7 0;
#X connect 5 1 10 0;
#X connect 5 1 14 0;
#X connect 5 1 16 0;
#X connect 5 1 20 0;
#X connect 5 1 22 0;
#X connect 6 0 1 0;
#X connect 7 0 6 1;
#X connect 8 0 7 1;
#X connect 9 0 1 0;
#X connect 10 0 9 1;
#X connect 11 0 10 1;
#X connect 12 0 4 1;
#X connect 12 0 8 0;
#X connect 12 0 11 0;
#X connect 12 0 17 0;
#X connect 12 0 18 0;
#X connect 12 0 23 0;
#X connect 12 0 24 0;
#X connect 13 0 1 0;
#X connect 14 0 13 1;
#X connect 15 0 1 0;
#X connect 16 0 15 1;
#X connect 17 0 14 1;
#X connect 18 0 16 1;
#X connect 19 0 1 0;
#X connect 20 0 19 1;
#X connect 21 0 1 0;
#X connect 22 0 21 1;
#X connect 23 0 20 1;
#X connect 24 0 22 1;
#X restore 248 412 pd 8;
#N canvas 702 288 801 612 (subpatch) 0;
#X obj 74 88 inlet;
#X obj 74 402 outlet;
#X obj 74 345 del;
#X obj 494 5 inlet clock-time-ms;
#X obj 95 242 f;
#X obj 74 113 t b b;
#X obj 116 345 del;
#X obj 137 242 f;
#X obj 158 89 * 2;
#X obj 156 345 del;
#X obj 177 242 f;
#X obj 198 89 * 3;
#X obj 196 345 del;
#X obj 217 242 f;
#X obj 236 345 del;
#X obj 257 242 f;
#X obj 238 89 * 4;
#X obj 278 89 * 5;
#X obj 276 345 del;
#X obj 297 242 f;
#X obj 316 345 del;
#X obj 337 242 f;
#X obj 318 89 * 6;
#X obj 358 89 * 7;
#X obj 494 33 / 16;
#X obj 356 345 del;
#X obj 377 242 f;
#X obj 396 345 del;
#X obj 417 242 f;
#X obj 436 345 del;
#X obj 457 242 f;
#X obj 476 345 del;
#X obj 497 242 f;
#X obj 516 345 del;
#X obj 537 242 f;
#X obj 556 345 del;
#X obj 577 242 f;
#X obj 398 89 * 8;
#X obj 438 89 * 9;
#X obj 478 89 * 10;
#X obj 518 89 * 11;
#X obj 558 89 * 12;
#X obj 598 89 * 13;
#X obj 596 345 del;
#X obj 617 242 f;
#X obj 636 345 del;
#X obj 657 242 f;
#X obj 638 89 * 14;
#X obj 678 89 * 15;
#X connect 0 0 5 0;
#X connect 2 0 1 0;
#X connect 3 0 24 0;
#X connect 4 0 2 1;
#X connect 5 0 2 0;
#X connect 5 0 6 0;
#X connect 5 0 9 0;
#X connect 5 0 12 0;
#X connect 5 0 14 0;
#X connect 5 0 18 0;
#X connect 5 0 20 0;
#X connect 5 0 25 0;
#X connect 5 0 27 0;
#X connect 5 0 29 0;
#X connect 5 0 31 0;
#X connect 5 0 33 0;
#X connect 5 0 35 0;
#X connect 5 0 43 0;
#X connect 5 0 45 0;
#X connect 5 1 4 0;
#X connect 5 1 7 0;
#X connect 5 1 10 0;
#X connect 5 1 13 0;
#X connect 5 1 15 0;
#X connect 5 1 19 0;
#X connect 5 1 21 0;
#X connect 5 1 26 0;
#X connect 5 1 28 0;
#X connect 5 1 30 0;
#X connect 5 1 32 0;
#X connect 5 1 34 0;
#X connect 5 1 36 0;
#X connect 5 1 44 0;
#X connect 5 1 46 0;
#X connect 6 0 1 0;
#X connect 7 0 6 1;
#X connect 8 0 7 1;
#X connect 9 0 1 0;
#X connect 10 0 9 1;
#X connect 11 0 10 1;
#X connect 12 0 1 0;
#X connect 13 0 12 1;
#X connect 14 0 1 0;
#X connect 15 0 14 1;
#X connect 16 0 13 1;
#X connect 17 0 15 1;
#X connect 18 0 1 0;
#X connect 19 0 18 1;
#X connect 20 0 1 0;
#X connect 21 0 20 1;
#X connect 22 0 19 1;
#X connect 23 0 21 1;
#X connect 24 0 4 1;
#X connect 24 0 8 0;
#X connect 24 0 11 0;
#X connect 24 0 16 0;
#X connect 24 0 17 0;
#X connect 24 0 22 0;
#X connect 24 0 23 0;
#X connect 24 0 37 0;
#X connect 24 0 38 0;
#X connect 24 0 39 0;
#X connect 24 0 40 0;
#X connect 24 0 41 0;
#X connect 24 0 42 0;
#X connect 24 0 47 0;
#X connect 24 0 48 0;
#X connect 25 0 1 0;
#X connect 26 0 25 1;
#X connect 27 0 1 0;
#X connect 28 0 27 1;
#X connect 29 0 1 0;
#X connect 30 0 29 1;
#X connect 31 0 1 0;
#X connect 32 0 31 1;
#X connect 33 0 1 0;
#X connect 34 0 33 1;
#X connect 35 0 1 0;
#X connect 36 0 35 1;
#X connect 37 0 26 1;
#X connect 38 0 28 1;
#X connect 39 0 30 1;
#X connect 40 0 32 1;
#X connect 41 0 34 1;
#X connect 42 0 36 1;
#X connect 43 0 1 0;
#X connect 44 0 43 1;
#X connect 45 0 1 0;
#X connect 46 0 45 1;
#X connect 47 0 44 1;
#X connect 48 0 46 1;
#X restore 293 472 pd 16;
#X obj 156 87 int;
#X msg 310 137 0;
#X floatatom 203 85 5 0 0 0 - - -, f 5;
#X msg 156 137 2, f 1;
#X msg 195 137 4, f 1;
#X msg 234 137 8, f 1;
#X msg 284 137 16, f 2;
#X obj 156 112 sel 1 2 3 4 5 6 7;
#X msg 176 137 3, f 1;
#X msg 215 137 6, f 1;
#X msg 254 137 12, f 2;
#X obj 156 62 * 7;
#X obj 135 259 route 1 2 3 4 6 8 12 16;
#N canvas 702 288 801 612 (subpatch) 0;
#X obj 74 88 inlet;
#X obj 74 402 outlet;
#X obj 74 345 del;
#X obj 494 5 inlet clock-time-ms;
#X obj 95 242 f;
#X obj 74 113 t b b;
#X obj 116 345 del;
#X obj 137 242 f;
#X obj 158 89 * 2;
#X obj 156 345 del;
#X obj 177 242 f;
#X obj 198 89 * 3;
#X obj 196 345 del;
#X obj 217 242 f;
#X obj 236 345 del;
#X obj 257 242 f;
#X obj 238 89 * 4;
#X obj 278 89 * 5;
#X obj 276 345 del;
#X obj 297 242 f;
#X obj 316 345 del;
#X obj 337 242 f;
#X obj 318 89 * 6;
#X obj 358 89 * 7;
#X obj 356 345 del;
#X obj 377 242 f;
#X obj 396 345 del;
#X obj 417 242 f;
#X obj 436 345 del;
#X obj 457 242 f;
#X obj 476 345 del;
#X obj 497 242 f;
#X obj 398 89 * 8;
#X obj 438 89 * 9;
#X obj 478 89 * 10;
#X obj 518 89 * 11;
#X obj 494 33 / 12;
#X connect 0 0 5 0;
#X connect 2 0 1 0;
#X connect 3 0 36 0;
#X connect 4 0 2 1;
#X connect 5 0 2 0;
#X connect 5 0 6 0;
#X connect 5 0 9 0;
#X connect 5 0 12 0;
#X connect 5 0 14 0;
#X connect 5 0 18 0;
#X connect 5 0 20 0;
#X connect 5 0 24 0;
#X connect 5 0 26 0;
#X connect 5 0 28 0;
#X connect 5 0 30 0;
#X connect 5 1 4 0;
#X connect 5 1 7 0;
#X connect 5 1 10 0;
#X connect 5 1 13 0;
#X connect 5 1 15 0;
#X connect 5 1 19 0;
#X connect 5 1 21 0;
#X connect 5 1 25 0;
#X connect 5 1 27 0;
#X connect 5 1 29 0;
#X connect 5 1 31 0;
#X connect 6 0 1 0;
#X connect 7 0 6 1;
#X connect 8 0 7 1;
#X connect 9 0 1 0;
#X connect 10 0 9 1;
#X connect 11 0 10 1;
#X connect 12 0 1 0;
#X connect 13 0 12 1;
#X connect 14 0 1 0;
#X connect 15 0 14 1;
#X connect 16 0 13 1;
#X connect 17 0 15 1;
#X connect 18 0 1 0;
#X connect 19 0 18 1;
#X connect 20 0 1 0;
#X connect 21 0 20 1;
#X connect 22 0 19 1;
#X connect 23 0 21 1;
#X connect 24 0 1 0;
#X connect 25 0 24 1;
#X connect 26 0 1 0;
#X connect 27 0 26 1;
#X connect 28 0 1 0;
#X connect 29 0 28 1;
#X connect 30 0 1 0;
#X connect 31 0 30 1;
#X connect 32 0 25 1;
#X connect 33 0 27 1;
#X connect 34 0 29 1;
#X connect 35 0 31 1;
#X connect 36 0 4 1;
#X connect 36 0 8 0;
#X connect 36 0 11 0;
#X connect 36 0 16 0;
#X connect 36 0 17 0;
#X connect 36 0 22 0;
#X connect 36 0 23 0;
#X connect 36 0 32 0;
#X connect 36 0 33 0;
#X connect 36 0 34 0;
#X connect 36 0 35 0;
#X restore 270 442 pd 12;
#N canvas 53 640 450 300 (subpatch) 0;
#X obj 74 49 inlet;
#X obj 74 244 outlet;
#X obj 74 185 del;
#X obj 148 49 inlet clock-time-ms;
#X obj 95 152 f;
#X obj 74 74 t b b;
#X obj 116 185 del;
#X obj 137 152 f;
#X obj 158 129 * 2;
#X obj 156 185 del;
#X obj 177 152 f;
#X obj 198 129 * 3;
#X obj 196 185 del;
#X obj 217 152 f;
#X obj 236 185 del;
#X obj 257 152 f;
#X obj 238 129 * 4;
#X obj 278 129 * 5;
#X obj 148 74 / 6;
#X connect 0 0 5 0;
#X connect 2 0 1 0;
#X connect 3 0 18 0;
#X connect 4 0 2 1;
#X connect 5 0 2 0;
#X connect 5 0 6 0;
#X connect 5 0 9 0;
#X connect 5 0 12 0;
#X connect 5 0 14 0;
#X connect 5 1 4 0;
#X connect 5 1 7 0;
#X connect 5 1 10 0;
#X connect 5 1 13 0;
#X connect 5 1 15 0;
#X connect 6 0 1 0;
#X connect 7 0 6 1;
#X connect 8 0 7 1;
#X connect 9 0 1 0;
#X connect 10 0 9 1;
#X connect 11 0 10 1;
#X connect 12 0 1 0;
#X connect 13 0 12 1;
#X connect 14 0 1 0;
#X connect 15 0 14 1;
#X connect 16 0 13 1;
#X connect 17 0 15 1;
#X connect 18 0 4 1;
#X connect 18 0 8 0;
#X connect 18 0 11 0;
#X connect 18 0 16 0;
#X connect 18 0 17 0;
#X restore 225 382 pd 6;
#N canvas 21 651 450 300 (subpatch) 0;
#X obj 74 49 inlet;
#X obj 74 184 outlet;
#X obj 74 153 del;
#X obj 148 49 inlet clock-time-ms;
#X obj 95 130 f;
#X obj 74 74 t b b;
#X obj 148 74 / 3;
#X obj 134 153 del;
#X obj 155 130 f;
#X obj 176 99 * 2;
#X connect 0 0 5 0;
#X connect 2 0 1 0;
#X connect 3 0 6 0;
#X connect 4 0 2 1;
#X connect 5 0 2 0;
#X connect 5 0 7 0;
#X connect 5 1 4 0;
#X connect 5 1 8 0;
#X connect 6 0 4 1;
#X connect 6 0 9 0;
#X connect 7 0 1 0;
#X connect 8 0 7 1;
#X connect 9 0 8 1;
#X restore 180 322 pd 3;
#X connect 1 0 10 1;
#X connect 1 0 9 1;
#X connect 1 0 11 1;
#X connect 1 0 12 1;
#X connect 1 0 26 1;
#X connect 1 0 27 1;
#X connect 1 0 28 1;
#X connect 2 0 24 0;
#X connect 3 0 7 0;
#X connect 4 0 6 0;
#X connect 5 0 25 0;
#X connect 6 0 5 0;
#X connect 7 0 4 0;
#X connect 7 1 0 0;
#X connect 8 0 0 0;
#X connect 9 0 8 0;
#X connect 10 0 8 0;
#X connect 11 0 8 0;
#X connect 12 0 8 0;
#X connect 13 0 15 0;
#X connect 13 0 20 0;
#X connect 14 0 6 1;
#X connect 16 0 6 1;
#X connect 17 0 6 1;
#X connect 18 0 6 1;
#X connect 19 0 6 1;
#X connect 20 0 16 0;
#X connect 20 1 21 0;
#X connect 20 2 17 0;
#X connect 20 3 22 0;
#X connect 20 4 18 0;
#X connect 20 5 23 0;
#X connect 20 6 19 0;
#X connect 20 7 14 0;
#X connect 21 0 6 1;
#X connect 22 0 6 1;
#X connect 23 0 6 1;
#X connect 24 0 13 0;
#X connect 25 1 10 0;
#X connect 25 2 28 0;
#X connect 25 3 9 0;
#X connect 25 4 27 0;
#X connect 25 5 11 0;
#X connect 25 6 26 0;
#X connect 25 7 12 0;
#X connect 26 0 8 0;
#X connect 27 0 8 0;
#X connect 28 0 8 0;
#X restore 47 478 pd apply-retrig;
#X obj 999 10 inlet clock-time-ms;
#X obj 999 458 t f;
#X obj 47 37 t f f f;
#X obj 833 154 bng 15 250 50 0 empty empty empty 17 7 0 10 -262144
-1 -1;
#X obj 799 432 t f;
#X obj 799 331 spigot;
#X obj 933 331 spigot;
#X obj 933 521 outlet packed-retrig-sequence;
#X msg 941 220 1;
#X msg 978 220 0;
#X obj 941 194 t b b;
#X obj 941 166 loadbang;
#X obj 105 452 t f;
#X obj 423 64 sel 0 1 2;
#X msg 588 230 1;
#X msg 554 230 0;
#X msg 904 221 1;
#X msg 870 221 0;
#X obj 87 128 t b b;
#X obj 499 137 t b b;
#X obj 833 130 t b b;
#X obj 802 8 inlet packed-retrig-seq;
#X connect 0 0 33 0;
#X connect 1 0 10 1;
#X connect 2 0 30 0;
#X connect 3 0 12 0;
#X connect 4 0 2 1;
#X connect 5 0 44 0;
#X connect 6 0 3 1;
#X connect 7 0 3 1;
#X connect 8 0 4 0;
#X connect 8 1 6 0;
#X connect 9 0 2 1;
#X connect 10 0 2 0;
#X connect 10 1 3 0;
#X connect 10 2 8 0;
#X connect 11 0 26 0;
#X connect 11 1 23 0;
#X connect 11 2 21 0;
#X connect 16 0 11 2;
#X connect 17 0 10 2;
#X connect 18 0 11 1;
#X connect 19 0 22 1;
#X connect 20 0 23 1;
#X connect 21 0 19 0;
#X connect 21 1 20 0;
#X connect 22 0 13 0;
#X connect 23 0 28 0;
#X connect 24 0 8 0;
#X connect 25 0 21 0;
#X connect 26 0 22 0;
#X connect 29 0 36 0;
#X connect 29 1 37 0;
#X connect 29 2 41 0;
#X connect 30 0 15 0;
#X connect 31 0 32 0;
#X connect 32 0 30 2;
#X connect 33 0 10 0;
#X connect 33 1 29 0;
#X connect 33 2 11 0;
#X connect 34 0 29 1;
#X connect 35 0 43 0;
#X connect 36 0 35 0;
#X connect 37 0 38 0;
#X connect 39 0 36 1;
#X connect 40 0 37 1;
#X connect 41 0 39 0;
#X connect 41 1 40 0;
#X connect 42 0 41 0;
#X connect 43 0 30 1;
#X connect 44 0 49 0;
#X connect 44 1 50 0;
#X connect 44 2 51 0;
#X connect 45 0 23 1;
#X connect 46 0 22 1;
#X connect 47 0 37 1;
#X connect 48 0 36 1;
#X connect 49 0 1 0;
#X connect 49 1 9 0;
#X connect 49 1 7 0;
#X connect 50 0 18 0;
#X connect 50 1 45 0;
#X connect 50 1 46 0;
#X connect 51 0 34 0;
#X connect 51 1 48 0;
#X connect 51 1 47 0;
#X connect 52 0 29 2;
