#N canvas 416 178 947 775 12;
#X floatatom 365 231 0 0 0 0 - - -;
#X obj 428 515 *~;
#X obj 698 400 line~;
#X obj 698 370 pack 0 200;
#X obj 365 287 exp;
#X floatatom 365 313 6 0 0 0 - - -, f 6;
#X obj 365 407 /;
#X obj 411 340 * 0.001;
#X obj 801 524 line~;
#X obj 801 494 pack 0 200;
#X obj 428 545 +~;
#X obj 365 575 cos~;
#X obj 365 605 *~;
#X obj 365 633 +~;
#X obj 614 491 wrap~;
#X obj 677 522 *~;
#X obj 677 552 +~;
#X obj 614 582 cos~;
#X obj 614 612 *~;
#X obj 411 370 t b f;
#X obj 614 461 +~ 0.5;
#X obj 365 515 -~ 0.5;
#X obj 365 545 *~ 0.5;
#X obj 614 522 -~ 0.5;
#X obj 614 552 *~ 0.5;
#X obj 365 340 - 1;
#X obj 365 261 * 0.05776;
#X obj 365 370 * -1;
#X obj 365 437 phasor~;
#X obj 801 404 max 1.5;
#X obj 698 306 max 1;
#X obj 36 86 inlet~;
#X obj 365 731 outlet~;
#X obj 96 86 inlet~;
#X obj 365 110 - 0.5;
#X obj 365 135 * 100;
#X obj 718 250 loadbang;
#X msg 698 275 100;
#X msg 801 374 1;
#X obj 365 85 inlet adjustment;
#X obj 525 85 inlet clock-time-ms;
#X obj 695 85 inlet play-pause;
#X text 41 21 Pitch Shifter fx;
#X floatatom 405 410 10 0 0 0 - - -, f 10;
#X obj 470 673 *~;
#X obj 470 701 +~;
#X obj 719 680 *~;
#X obj 470 731 outlet~;
#X obj 36 177 delwrite~ \$0-fx0-del-L 5000;
#X obj 96 157 delwrite~ \$0-fx0-del-R 5000;
#X obj 428 575 delread4~ \$0-fx0-del-L;
#X obj 677 582 delread4~ \$0-fx0-del-L;
#X obj 492 643 delread4~ \$0-fx0-del-R;
#X obj 739 650 delread4~ \$0-fx0-del-R;
#X text 38 39 This is based off of the built in PD example pitch shifter.
Modified for stereo.;
#X connect 0 0 26 0;
#X connect 1 0 10 0;
#X connect 2 0 1 1;
#X connect 2 0 15 1;
#X connect 3 0 2 0;
#X connect 4 0 5 0;
#X connect 5 0 25 0;
#X connect 6 0 28 0;
#X connect 6 0 43 0;
#X connect 7 0 19 0;
#X connect 8 0 16 1;
#X connect 8 0 10 1;
#X connect 9 0 8 0;
#X connect 10 0 50 0;
#X connect 10 0 52 0;
#X connect 11 0 12 0;
#X connect 11 0 44 0;
#X connect 12 0 13 0;
#X connect 13 0 32 0;
#X connect 14 0 15 0;
#X connect 14 0 23 0;
#X connect 15 0 16 0;
#X connect 16 0 51 0;
#X connect 16 0 53 0;
#X connect 17 0 18 0;
#X connect 18 0 13 1;
#X connect 19 0 6 0;
#X connect 19 1 6 1;
#X connect 20 0 14 0;
#X connect 21 0 22 0;
#X connect 22 0 11 0;
#X connect 23 0 24 0;
#X connect 24 0 17 0;
#X connect 24 0 46 0;
#X connect 25 0 27 0;
#X connect 26 0 4 0;
#X connect 27 0 6 0;
#X connect 28 0 1 0;
#X connect 28 0 21 0;
#X connect 28 0 20 0;
#X connect 29 0 9 0;
#X connect 30 0 7 0;
#X connect 30 0 3 0;
#X connect 31 0 48 0;
#X connect 33 0 49 0;
#X connect 34 0 35 0;
#X connect 35 0 0 0;
#X connect 36 0 37 0;
#X connect 36 0 38 0;
#X connect 37 0 30 0;
#X connect 38 0 29 0;
#X connect 39 0 34 0;
#X connect 44 0 45 0;
#X connect 45 0 47 0;
#X connect 46 0 45 1;
#X connect 50 0 12 1;
#X connect 51 0 18 1;
#X connect 52 0 44 1;
#X connect 53 0 46 1;
