#N canvas 222 138 1160 712 12;
#X obj 26 127 inlet~;
#X obj 26 662 outlet~;
#X obj 176 127 inlet~;
#X obj 366 662 outlet~;
#X obj 26 471 tabwrite~ \$0-left;
#X obj 26 593 tabplay~ \$0-left;
#X obj 261 260 metro 50;
#X obj 28 518 array define \$0-left 5512;
#X obj 28 548 array define \$0-right 5512;
#X obj 176 471 tabwrite~ \$0-right;
#X obj 356 542 t b;
#X obj 261 285 t b b;
#X obj 356 459 del;
#X obj 386 459 del;
#X obj 416 459 del;
#X obj 446 459 del;
#X obj 476 459 del;
#X obj 506 459 del;
#X obj 536 459 del;
#X obj 377 275 * 2;
#X obj 407 275 * 3;
#X obj 437 275 * 4;
#X obj 467 275 * 5;
#X obj 497 275 * 6;
#X obj 527 275 * 7;
#X obj 557 275 * 8;
#X obj 454 217 / 8;
#X obj 366 593 tabplay~ \$0-right;
#X text 499 214 Loop 8 times;
#X obj 322 127 inlet;
#N canvas 1194 289 523 571 handle-input 0;
#X obj 86 37 inlet;
#X obj 86 528 outlet;
#X obj 369 35 inlet;
#X obj 86 67 * 10;
#X floatatom 86 92 5 0 0 0 - - -, f 5;
#X obj 86 114 int;
#X obj 107 438 unpack f f;
#X obj 86 409 t b a;
#X obj 86 503 / 1;
#X obj 86 478 * 1;
#X obj 369 368 t f;
#X msg 253 349 1 8;
#X msg 179 269 1 4;
#X msg 86 169 3 1;
#X msg 104 189 2 1;
#X msg 123 209 1 1;
#X msg 141 229 1 2;
#X msg 160 249 1 3;
#X msg 197 289 1 5;
#X msg 216 309 1 6;
#X msg 235 329 1 7;
#X obj 86 139 sel 0 1 2 3 4 5 6 7 8 9 10;
#X msg 272 369 1 10;
#X floatatom 184 490 5 0 0 0 - - -, f 5;
#X text 178 91 Quantize input;
#X connect 0 0 3 0;
#X connect 2 0 10 0;
#X connect 3 0 4 0;
#X connect 4 0 5 0;
#X connect 5 0 21 0;
#X connect 6 0 9 1;
#X connect 6 1 8 1;
#X connect 6 1 23 0;
#X connect 7 0 9 0;
#X connect 7 1 6 0;
#X connect 8 0 1 0;
#X connect 9 0 8 0;
#X connect 10 0 9 0;
#X connect 11 0 7 0;
#X connect 12 0 7 0;
#X connect 13 0 7 0;
#X connect 14 0 7 0;
#X connect 15 0 7 0;
#X connect 16 0 7 0;
#X connect 17 0 7 0;
#X connect 18 0 7 0;
#X connect 19 0 7 0;
#X connect 20 0 7 0;
#X connect 21 0 13 0;
#X connect 21 1 14 0;
#X connect 21 2 15 0;
#X connect 21 3 16 0;
#X connect 21 4 17 0;
#X connect 21 5 12 0;
#X connect 21 6 18 0;
#X connect 21 7 19 0;
#X connect 21 8 20 0;
#X connect 21 9 11 0;
#X connect 21 10 22 0;
#X connect 22 0 7 0;
#X restore 322 155 pd handle-input;
#X obj 322 186 t f f f;
#X msg 261 234 1;
#X obj 27 633 *~ 1;
#X obj 367 633 *~ 1;
#X text 273 9 Digital timestretch "alien" FX;
#X obj 606 542 t b;
#X obj 606 459 del;
#X obj 636 459 del;
#X obj 666 459 del;
#X obj 696 459 del;
#X obj 726 459 del;
#X obj 756 459 del;
#X obj 786 459 del;
#X obj 627 275 * 2;
#X obj 657 275 * 3;
#X obj 687 275 * 4;
#X obj 717 275 * 5;
#X obj 747 275 * 6;
#X obj 777 275 * 7;
#X obj 807 275 * 8;
#X obj 706 215 / 8.5;
#X text 764 212 <-- 8.5 for right side to create stereo effect;
#X text 273 29 Records a small section of the audio at the input interval
\, then loops over it.;
#X obj 439 127 inlet clock-time-ms;
#X obj 657 127 inlet play-pause;
#X obj 244 186 loadbang;
#X obj 657 152 t b;
#X text 689 152 <- Bang to restart metro and keep it in sync with TBC
;
#X connect 0 0 4 0;
#X connect 2 0 9 0;
#X connect 5 0 33 0;
#X connect 6 0 11 0;
#X connect 10 0 5 0;
#X connect 11 0 12 0;
#X connect 11 0 13 0;
#X connect 11 0 14 0;
#X connect 11 0 15 0;
#X connect 11 0 16 0;
#X connect 11 0 17 0;
#X connect 11 0 18 0;
#X connect 11 0 10 0;
#X connect 11 0 37 0;
#X connect 11 0 38 0;
#X connect 11 0 39 0;
#X connect 11 0 40 0;
#X connect 11 0 41 0;
#X connect 11 0 42 0;
#X connect 11 0 43 0;
#X connect 11 1 4 0;
#X connect 11 1 9 0;
#X connect 12 0 10 0;
#X connect 13 0 10 0;
#X connect 14 0 10 0;
#X connect 15 0 10 0;
#X connect 16 0 10 0;
#X connect 17 0 10 0;
#X connect 18 0 10 0;
#X connect 19 0 12 1;
#X connect 20 0 13 1;
#X connect 21 0 14 1;
#X connect 22 0 15 1;
#X connect 23 0 16 1;
#X connect 24 0 17 1;
#X connect 25 0 18 1;
#X connect 26 0 19 0;
#X connect 26 0 20 0;
#X connect 26 0 21 0;
#X connect 26 0 22 0;
#X connect 26 0 23 0;
#X connect 26 0 24 0;
#X connect 26 0 25 0;
#X connect 27 0 34 0;
#X connect 29 0 30 0;
#X connect 30 0 31 0;
#X connect 31 0 6 1;
#X connect 31 2 26 0;
#X connect 31 2 51 0;
#X connect 32 0 6 0;
#X connect 33 0 1 0;
#X connect 34 0 3 0;
#X connect 36 0 27 0;
#X connect 37 0 36 0;
#X connect 38 0 36 0;
#X connect 39 0 36 0;
#X connect 40 0 36 0;
#X connect 41 0 36 0;
#X connect 42 0 36 0;
#X connect 43 0 36 0;
#X connect 44 0 37 1;
#X connect 45 0 38 1;
#X connect 46 0 39 1;
#X connect 47 0 40 1;
#X connect 48 0 41 1;
#X connect 49 0 42 1;
#X connect 50 0 43 1;
#X connect 51 0 44 0;
#X connect 51 0 45 0;
#X connect 51 0 46 0;
#X connect 51 0 47 0;
#X connect 51 0 48 0;
#X connect 51 0 49 0;
#X connect 51 0 50 0;
#X connect 54 0 30 1;
#X connect 55 0 57 0;
#X connect 56 0 32 0;
#X connect 57 0 32 0;
