#N canvas 241 436 735 453 12;
#X obj 34 57 inlet~;
#X obj 33 304 outlet~;
#X obj 33 222 hip~ 5000;
#X text 221 15 Highpass filter;
#X obj 285 53 inlet adjustment;
#X obj 285 87 * 5000;
#X obj 285 112 + 50;
#X obj 134 57 inlet~;
#X obj 133 304 outlet~;
#X obj 133 222 hip~ 5000;
#X obj 427 53 inlet clock-time-ms;
#X obj 593 53 inlet play-pause;
#X connect 0 0 2 0;
#X connect 2 0 1 0;
#X connect 4 0 5 0;
#X connect 5 0 6 0;
#X connect 6 0 2 1;
#X connect 6 0 9 1;
#X connect 7 0 9 0;
#X connect 9 0 8 0;
