#N canvas 370 432 739 410 12;
#X obj 70 67 inlet~;
#X obj 70 315 outlet~;
#X text 163 21 Lowpass filter;
#X obj 244 69 inlet adjustment;
#X obj 71 223 vcf~;
#X obj 242 159 loadbang;
#X msg 242 183 0.5;
#X obj 244 124 + 25;
#X obj 244 99 * 500;
#X obj 140 67 inlet~;
#X obj 140 315 outlet~;
#X obj 141 223 vcf~;
#X obj 386 69 inlet clock-time-ms;
#X obj 552 69 inlet play-pause;
#X connect 0 0 4 0;
#X connect 3 0 8 0;
#X connect 4 0 1 0;
#X connect 5 0 6 0;
#X connect 6 0 4 2;
#X connect 6 0 11 2;
#X connect 7 0 4 1;
#X connect 7 0 11 1;
#X connect 8 0 7 0;
#X connect 9 0 11 0;
#X connect 11 0 10 0;
