#N canvas 165 437 1157 434 12;
#X obj 34 94 inlet~;
#X obj 33 381 outlet~;
#X obj 635 95 inlet adjustment;
#X obj 138 242 *~ 0.5;
#X floatatom 635 240 5 0 0 0 - - -, f 5;
#X obj 635 169 * 30;
#X obj 635 194 + 10;
#X obj 635 119 swap 1;
#X obj 635 144 -;
#X obj 66 348 delread~ \$0-delay-fx-1a 20;
#X obj 61 193 delwrite~ \$0-delay-fx-1a 1000;
#X obj 334 94 inlet~;
#X obj 333 381 outlet~;
#X obj 438 242 *~ 0.5;
#X obj 361 193 delwrite~ \$0-delay-fx-1b 1000;
#X obj 366 348 delread~ \$0-delay-fx-1b 20;
#X obj 635 282 + 2;
#X text 172 35 "Robot" fx;
#X text 675 281 <-- Slight stereo offset;
#X obj 796 95 inlet clock-time-ms;
#X obj 962 95 inlet play-pause;
#X connect 0 0 1 0;
#X connect 0 0 10 0;
#X connect 2 0 7 0;
#X connect 3 0 10 0;
#X connect 4 0 9 0;
#X connect 4 0 16 0;
#X connect 5 0 6 0;
#X connect 6 0 4 0;
#X connect 7 0 8 0;
#X connect 7 1 8 1;
#X connect 8 0 5 0;
#X connect 9 0 1 0;
#X connect 9 0 3 0;
#X connect 11 0 12 0;
#X connect 11 0 14 0;
#X connect 13 0 14 0;
#X connect 15 0 12 0;
#X connect 15 0 13 0;
#X connect 16 0 15 0;
