#N canvas 53 332 1531 574 12;
#X obj 66 107 inlet~;
#X obj 64 525 outlet~;
#X text 562 219 Get the clock time to stutter;
#X text 295 49 We need to detect when another effect is active \, so
that we can stop the delay;
#X obj 66 248 *~;
#X msg 828 336 0;
#X msg 865 336 1;
#X obj 828 301 del;
#X msg 976 383 0;
#X text 666 429 Activate / deactivate the stutter;
#X floatatom 801 218 5 0 0 0 - - -, f 5;
#X obj 939 225 change;
#X obj 939 250 sel 1;
#X text 141 15 Stutter using a delay line matched to clock speed;
#X obj 217 371 *~ 1;
#X msg 939 384 1;
#X obj 635 107 inlet adjustment;
#X obj 801 194 * 1;
#X obj 635 133 * 2;
#X obj 306 107 inlet~;
#X obj 304 525 outlet~;
#X obj 306 248 *~;
#X obj 457 371 *~ 1;
#X obj 82 292 delwrite~ \$0-stuttera 1000;
#X obj 81 456 delread~ \$0-stuttera;
#X obj 322 292 delwrite~ \$0-stutterb 1000;
#X obj 321 456 delread~ \$0-stutterb;
#X obj 327 188 r \$0-on-off;
#X obj 828 373 s \$0-on-off;
#X obj 939 429 s \$0-stutter;
#X obj 486 321 r \$0-stutter;
#X obj 801 240 s \$0-speed;
#X obj 321 402 r \$0-speed;
#X obj 801 165 t b f;
#X obj 773 107 inlet clock-time-ms;
#X obj 939 107 inlet play-pause;
#X obj 773 132 / 2;
#X connect 0 0 4 0;
#X connect 4 0 1 0;
#X connect 4 0 23 0;
#X connect 5 0 28 0;
#X connect 6 0 28 0;
#X connect 7 0 5 0;
#X connect 8 0 29 0;
#X connect 10 0 7 1;
#X connect 10 0 31 0;
#X connect 11 0 12 0;
#X connect 12 0 6 0;
#X connect 12 0 7 0;
#X connect 12 0 15 0;
#X connect 12 1 5 0;
#X connect 12 1 8 0;
#X connect 14 0 23 0;
#X connect 15 0 29 0;
#X connect 16 0 18 0;
#X connect 17 0 10 0;
#X connect 18 0 33 0;
#X connect 19 0 21 0;
#X connect 21 0 20 0;
#X connect 21 0 25 0;
#X connect 22 0 25 0;
#X connect 24 0 1 0;
#X connect 24 0 14 0;
#X connect 26 0 20 0;
#X connect 26 0 22 0;
#X connect 27 0 4 1;
#X connect 27 0 21 1;
#X connect 30 0 14 1;
#X connect 30 0 22 1;
#X connect 32 0 26 0;
#X connect 32 0 24 0;
#X connect 33 0 17 0;
#X connect 33 1 17 1;
#X connect 34 0 36 0;
#X connect 35 0 11 0;
#X connect 36 0 17 0;
