#N canvas 65 359 907 529 12;
#X declare -stdpath extra;
#X obj 28 30 inlet~;
#X obj 29 447 outlet~;
#X obj 362 31 inlet adjustment;
#X obj 28 183 clip~ -1 1;
#X obj 28 212 *~ 0.75;
#X obj 28 319 *~ 0;
#X obj 82 319 *~ 1;
#X obj 55 82 swap 1;
#X obj 55 107 -;
#X floatatom 55 132 5 0 0 0 - - -, f 5;
#X obj 407 163 loadbang;
#X obj 290 31 inlet~;
#X obj 99 447 outlet~;
#X msg 407 208 100;
#X obj 132 319 *~ 1;
#X msg 447 208 85;
#X msg 487 208 16;
#X text 141 10 Reverb fx;
#X obj 289 180 clip~ -1 1;
#X obj 289 209 *~ 0.75;
#X obj 289 326 *~ 0;
#X obj 343 326 *~ 1;
#X obj 393 326 *~ 1;
#X obj 340 411 declare -stdpath extra;
#X obj 343 288 rev2~;
#X obj 82 281 rev2~;
#X obj 514 31 inlet clock-time-ms;
#X obj 680 31 inlet play-pause;
#X connect 0 0 3 0;
#X connect 2 0 7 0;
#X connect 2 0 6 1;
#X connect 2 0 14 1;
#X connect 2 0 21 1;
#X connect 2 0 22 1;
#X connect 3 0 4 0;
#X connect 4 0 5 0;
#X connect 4 0 25 0;
#X connect 5 0 1 0;
#X connect 5 0 12 0;
#X connect 6 0 1 0;
#X connect 7 0 8 0;
#X connect 7 1 8 1;
#X connect 8 0 9 0;
#X connect 9 0 5 1;
#X connect 9 0 20 1;
#X connect 10 0 13 0;
#X connect 10 0 15 0;
#X connect 10 0 16 0;
#X connect 11 0 18 0;
#X connect 13 0 24 1;
#X connect 13 0 25 1;
#X connect 14 0 12 0;
#X connect 15 0 24 2;
#X connect 15 0 25 2;
#X connect 16 0 24 4;
#X connect 16 0 25 4;
#X connect 18 0 19 0;
#X connect 19 0 20 0;
#X connect 19 0 24 0;
#X connect 20 0 1 0;
#X connect 20 0 12 0;
#X connect 21 0 1 0;
#X connect 22 0 12 0;
#X connect 24 0 21 0;
#X connect 24 1 22 0;
#X connect 25 0 6 0;
#X connect 25 1 14 0;
