#N canvas 1016 406 849 455 12;
#X obj 39 49 inlet~;
#X obj 38 409 outlet~;
#X obj 38 231 lop~ 2000;
#X obj 38 257 lop~ 2000;
#X obj 38 319 samphold~;
#X obj 273 235 *~ 2;
#X obj 273 257 -~ 1;
#X obj 273 213 expr~ $v1 > 0.5;
#X obj 38 341 lop~ 2000;
#X obj 38 363 lop~ 2000;
#X text 179 14 Bitcrusher;
#X obj 273 51 inlet adjustment;
#X obj 273 183 phasor~ 4000;
#X obj 273 135 * 4000;
#X obj 273 160 + 100;
#X obj 273 76 swap 1;
#X obj 273 101 -;
#X obj 129 49 inlet~;
#X obj 128 231 lop~ 2000;
#X obj 128 257 lop~ 2000;
#X obj 128 319 samphold~;
#X obj 128 341 lop~ 2000;
#X obj 128 363 lop~ 2000;
#X obj 128 409 outlet~;
#X obj 403 235 *~ 2;
#X obj 403 257 -~ 1;
#X obj 403 213 expr~ $v1 > 0.5;
#X obj 403 159 + 105;
#X obj 403 135 * 4000;
#X obj 403 183 phasor~ 4005;
#X obj 425 51 inlet clock-time-ms;
#X obj 591 51 inlet play-pause;
#X text 347 318 This patch is based on the AUTOMATONISM bitcrusher
;
#X connect 0 0 2 0;
#X connect 2 0 3 0;
#X connect 3 0 4 0;
#X connect 4 0 8 0;
#X connect 5 0 6 0;
#X connect 6 0 4 1;
#X connect 7 0 5 0;
#X connect 8 0 9 0;
#X connect 9 0 1 0;
#X connect 11 0 15 0;
#X connect 12 0 7 0;
#X connect 13 0 14 0;
#X connect 14 0 12 0;
#X connect 15 0 16 0;
#X connect 15 1 16 1;
#X connect 16 0 13 0;
#X connect 16 0 28 0;
#X connect 17 0 18 0;
#X connect 18 0 19 0;
#X connect 19 0 20 0;
#X connect 20 0 21 0;
#X connect 21 0 22 0;
#X connect 22 0 23 0;
#X connect 24 0 25 0;
#X connect 25 0 20 1;
#X connect 26 0 24 0;
#X connect 27 0 29 0;
#X connect 28 0 27 0;
#X connect 29 0 26 0;
