#N canvas 948 298 737 542 12;
#X obj 39 65 inlet~;
#X obj 40 483 outlet~;
#X obj 233 359 *~;
#X obj 255 184 *~ 0.5;
#X obj 255 209 +~ 0.5;
#X text 362 13 High speed tremolo;
#X obj 40 358 lop~ 100;
#X obj 40 383 *~ 0.5;
#X obj 255 65 inlet adjustment;
#X obj 255 159 osc~ 50;
#X obj 255 130 + 1;
#X obj 255 105 * 50;
#X obj 119 65 inlet~;
#X obj 120 358 lop~ 100;
#X obj 120 383 *~ 0.5;
#X obj 120 483 outlet~;
#X obj 333 359 *~;
#X obj 355 184 *~ 0.5;
#X obj 355 209 +~ 0.5;
#X obj 355 159 osc~ 50;
#X obj 355 130 + 1;
#X obj 355 105 * 53;
#X obj 396 65 inlet clock-time-ms;
#X obj 562 65 inlet play-pause;
#X connect 0 0 2 0;
#X connect 0 0 6 0;
#X connect 2 0 1 0;
#X connect 3 0 4 0;
#X connect 4 0 2 1;
#X connect 6 0 7 0;
#X connect 7 0 1 0;
#X connect 8 0 11 0;
#X connect 8 0 21 0;
#X connect 9 0 3 0;
#X connect 10 0 9 0;
#X connect 11 0 10 0;
#X connect 12 0 13 0;
#X connect 12 0 16 0;
#X connect 13 0 14 0;
#X connect 14 0 15 0;
#X connect 16 0 15 0;
#X connect 17 0 18 0;
#X connect 18 0 16 1;
#X connect 19 0 17 0;
#X connect 20 0 19 0;
#X connect 21 0 20 0;
