#N canvas 20 187 1027 728 12;
#X obj 63 107 inlet~;
#X obj 62 645 outlet~;
#X text 552 156 Get the clock time to stutter;
#X obj 63 611 *~;
#X floatatom 549 131 5 0 0 0 - - -, f 5;
#X obj 85 408 f 0;
#X obj 120 408 + 1;
#X obj 158 408 sel 1;
#X msg 158 433 0;
#X floatatom 85 433 5 0 0 0 - - -, f 5;
#X obj 85 566 line~;
#X msg 85 539 \$1 1;
#X obj 416 76 inlet adjust;
#X obj 410 318 metro 100;
#X obj 479 259 /;
#X obj 387 268 loadbang;
#X msg 387 293 1;
#X floatatom 490 287 5 0 0 0 - - -, f 5;
#X obj 416 157 sel 0;
#X msg 416 182 1;
#X obj 416 127 + 1;
#X obj 233 107 inlet~;
#X obj 232 645 outlet~;
#X obj 233 611 *~;
#X obj 492 406 + 1;
#X obj 530 406 sel 1;
#X msg 530 431 0;
#X floatatom 457 431 5 0 0 0 - - -, f 5;
#X obj 255 566 line~;
#X msg 255 539 \$1 1;
#X obj 457 406 f 1;
#X obj 255 494 spigot 1;
#X obj 335 494 spigot 0;
#X obj 316 413 tgl 30 0 empty empty Stereo_Spread 35 7 0 10 -203904
-1 -1 0 1;
#X obj 316 448 == 0;
#X text 137 33 Gate effect porportional to clock speed;
#X obj 423 213 t b f;
#X obj 416 102 * 32;
#X obj 549 85 inlet clock-time-ms;
#X obj 715 85 inlet play-pause;
#X connect 0 0 3 0;
#X connect 3 0 1 0;
#X connect 4 0 14 0;
#X connect 5 0 6 0;
#X connect 5 0 7 0;
#X connect 5 0 9 0;
#X connect 6 0 5 1;
#X connect 7 0 8 0;
#X connect 8 0 5 1;
#X connect 9 0 11 0;
#X connect 9 0 31 0;
#X connect 10 0 3 1;
#X connect 11 0 10 0;
#X connect 12 0 37 0;
#X connect 13 0 5 0;
#X connect 13 0 30 0;
#X connect 14 0 13 1;
#X connect 14 0 17 0;
#X connect 15 0 16 0;
#X connect 16 0 13 0;
#X connect 18 0 19 0;
#X connect 18 1 36 0;
#X connect 19 0 36 0;
#X connect 20 0 18 0;
#X connect 21 0 23 0;
#X connect 23 0 22 0;
#X connect 24 0 30 1;
#X connect 25 0 26 0;
#X connect 26 0 30 1;
#X connect 27 0 32 0;
#X connect 28 0 23 1;
#X connect 29 0 28 0;
#X connect 30 0 24 0;
#X connect 30 0 25 0;
#X connect 30 0 27 0;
#X connect 31 0 29 0;
#X connect 32 0 29 0;
#X connect 33 0 34 0;
#X connect 33 0 32 1;
#X connect 34 0 31 1;
#X connect 36 0 14 0;
#X connect 36 1 14 1;
#X connect 37 0 20 0;
#X connect 38 0 4 0;
