#N canvas 476 442 534 415 12;
#X obj 42 49 inlet~;
#X obj 43 357 outlet~;
#X text 222 4 Overdrive;
#X obj 43 208 clip~ -1 1;
#X obj 43 183 *~ 25;
#X obj 225 49 inlet adjustment;
#X obj 225 111 exp;
#X obj 225 86 * 6;
#X obj 43 233 *~ 0.25;
#X obj 142 49 inlet~;
#X obj 143 208 clip~ -1 1;
#X obj 143 183 *~ 25;
#X obj 143 357 outlet~;
#X obj 143 233 *~ 0.25;
#X obj 367 49 inlet clock-time-ms;
#X obj 533 49 inlet play-pause;
#X connect 0 0 4 0;
#X connect 3 0 8 0;
#X connect 4 0 3 0;
#X connect 5 0 7 0;
#X connect 6 0 4 1;
#X connect 6 0 11 1;
#X connect 7 0 6 0;
#X connect 8 0 1 0;
#X connect 9 0 11 0;
#X connect 10 0 13 0;
#X connect 11 0 10 0;
#X connect 13 0 12 0;
