#N canvas 108 121 1107 688 12;
#X obj 48 341 inlet~;
#X obj 46 551 *~;
#X obj 236 425 r \$0-gain;
#X obj 236 471 pack f 5;
#X obj 236 495 line~;
#X obj 46 576 outlet~;
#X obj 371 576 s \$0-thresh;
#X obj 441 548 s \$0-ratio;
#X obj 511 519 s \$0-response;
#X obj 581 435 s \$0-gain;
#X obj 651 400 s \$0-rmspeak;
#X obj 721 371 s \$0-lookahead;
#X obj 371 546 dbtorms;
#X obj 371 508 + 100;
#X obj 441 519 /;
#X obj 441 486 swap 1;
#X obj 581 383 + 100;
#X obj 581 408 dbtorms;
#X obj 371 195 loadbang;
#X text 75 91 http://designingsound.org/2013/06/tutorial-a-compressor-in-pure-data/
;
#X text 75 66 This patch is based on Varun Nair's compressor from;
#X floatatom 371 285 5 0 0 0 - - -, f 5;
#X floatatom 441 285 5 0 0 0 - - -, f 5;
#X floatatom 511 285 5 0 0 0 - - -, f 5;
#X floatatom 581 285 5 0 0 0 - - -, f 5;
#X floatatom 651 285 5 0 0 0 - - -, f 5;
#X floatatom 721 285 5 0 0 0 - - -, f 5;
#X msg 664 250 0;
#X floatatom 191 453 5 0 0 0 - - -, f 5;
#X msg 721 252 20;
#X msg 441 253 100;
#X msg 371 254 -30;
#X msg 511 254 6;
#X msg 581 251 10;
#X text 77 17 Compressor;
#X obj 566 145 inlet adjustment;
#X obj 566 174 * 20;
#X obj 136 551 *~;
#X obj 136 576 outlet~;
#X obj 138 341 inlet~;
#N canvas 1112 436 520 420 comp2 0;
#N canvas 383 446 444 408 rms-comp 0;
#X obj 77 24 inlet~;
#X obj 78 332 outlet~;
#X obj 77 79 env~ 512;
#X obj 77 104 dbtorms~;
#X obj 78 159 -~;
#X obj 78 249 +~;
#X obj 78 204 *~;
#X obj 78 298 /~;
#X obj 37 249 +~ 0;
#X obj 110 132 r \$0-thresh;
#X obj 112 178 r \$0-ratio;
#X obj 113 224 r \$0-thresh;
#X obj 234 32 inlet;
#X obj 234 57 switch~;
#X floatatom 110 157 5 0 0 0 - - -, f 5;
#X floatatom 112 203 5 0 0 0 - - -, f 5;
#X floatatom 113 249 5 0 0 0 - - -, f 5;
#X connect 0 0 2 0;
#X connect 2 0 3 0;
#X connect 3 0 4 0;
#X connect 3 0 8 0;
#X connect 4 0 6 0;
#X connect 5 0 7 0;
#X connect 6 0 5 0;
#X connect 7 0 1 0;
#X connect 8 0 7 1;
#X connect 9 0 4 1;
#X connect 9 0 14 0;
#X connect 10 0 6 1;
#X connect 10 0 15 0;
#X connect 11 0 5 1;
#X connect 11 0 16 0;
#X connect 12 0 13 0;
#X restore 239 152 pd rms-comp;
#N canvas 0 50 444 408 abs-comp 0;
#X obj 77 24 inlet~;
#X obj 78 332 outlet~;
#X obj 78 159 -~;
#X obj 78 249 +~;
#X obj 78 204 *~;
#X obj 78 298 /~;
#X obj 37 249 +~ 0;
#X obj 110 132 r \$0-thresh;
#X obj 112 178 r \$0-ratio;
#X obj 113 224 r \$0-thresh;
#X obj 77 79 abs~;
#X obj 234 32 inlet;
#X obj 234 57 switch~;
#X floatatom 110 157 5 0 0 0 - - -, f 5;
#X floatatom 112 203 5 0 0 0 - - -, f 5;
#X floatatom 113 249 5 0 0 0 - - -, f 5;
#X connect 0 0 10 0;
#X connect 2 0 4 0;
#X connect 3 0 5 0;
#X connect 4 0 3 0;
#X connect 5 0 1 0;
#X connect 6 0 5 1;
#X connect 7 0 2 1;
#X connect 7 0 13 0;
#X connect 8 0 4 1;
#X connect 8 0 14 0;
#X connect 9 0 3 1;
#X connect 9 0 15 0;
#X connect 10 0 2 0;
#X connect 10 0 6 0;
#X connect 11 0 12 0;
#X restore 339 153 pd abs-comp;
#X obj 108 180 r \$0-lookahead;
#X obj 240 202 clip~ 0 1;
#X obj 239 259 lop~;
#X obj 268 233 r \$0-response;
#X obj 324 50 r \$0-rmspeak;
#X obj 324 75 t f f;
#X obj 324 100 == 0;
#X obj 217 317 *~;
#X obj 33 39 *~ 2;
#X obj 33 9 inlet~;
#X obj 217 342 outlet~;
#N canvas 695 308 450 300 delWrite 0;
#X obj 61 34 inlet~;
#X obj 59 141 outlet~;
#X obj 60 65 delwrite~ \$0-comp2 500;
#X connect 0 0 2 0;
#X restore 32 134 pd delWrite;
#N canvas 0 50 450 300 delRead 0;
#X obj 56 107 outlet~;
#X obj 190 31 inlet;
#X obj 62 28 inlet~;
#X obj 56 82 delread~ \$0-comp2 0;
#X connect 1 0 3 0;
#X connect 3 0 0 0;
#X restore 31 211 pd delRead;
#X connect 0 0 3 0;
#X connect 1 0 3 0;
#X connect 2 0 14 1;
#X connect 3 0 4 0;
#X connect 4 0 9 1;
#X connect 5 0 4 1;
#X connect 6 0 7 0;
#X connect 7 0 8 0;
#X connect 7 1 1 1;
#X connect 8 0 0 1;
#X connect 9 0 12 0;
#X connect 10 0 0 0;
#X connect 10 0 1 0;
#X connect 10 0 13 0;
#X connect 11 0 10 0;
#X connect 13 0 14 0;
#X connect 14 0 9 0;
#X restore 137 393 pd comp2;
#N canvas 1112 436 520 420 comp1 0;
#N canvas 383 446 444 408 rms-comp 0;
#X obj 77 24 inlet~;
#X obj 78 332 outlet~;
#X obj 77 79 env~ 512;
#X obj 77 104 dbtorms~;
#X obj 78 159 -~;
#X obj 78 249 +~;
#X obj 78 204 *~;
#X obj 78 298 /~;
#X obj 37 249 +~ 0;
#X obj 110 132 r \$0-thresh;
#X obj 112 178 r \$0-ratio;
#X obj 113 224 r \$0-thresh;
#X obj 234 32 inlet;
#X obj 234 57 switch~;
#X floatatom 110 157 5 0 0 0 - - -, f 5;
#X floatatom 112 203 5 0 0 0 - - -, f 5;
#X floatatom 113 249 5 0 0 0 - - -, f 5;
#X connect 0 0 2 0;
#X connect 2 0 3 0;
#X connect 3 0 4 0;
#X connect 3 0 8 0;
#X connect 4 0 6 0;
#X connect 5 0 7 0;
#X connect 6 0 5 0;
#X connect 7 0 1 0;
#X connect 8 0 7 1;
#X connect 9 0 4 1;
#X connect 9 0 14 0;
#X connect 10 0 6 1;
#X connect 10 0 15 0;
#X connect 11 0 5 1;
#X connect 11 0 16 0;
#X connect 12 0 13 0;
#X restore 239 152 pd rms-comp;
#N canvas 0 50 444 408 abs-comp 0;
#X obj 77 24 inlet~;
#X obj 78 332 outlet~;
#X obj 78 159 -~;
#X obj 78 249 +~;
#X obj 78 204 *~;
#X obj 78 298 /~;
#X obj 37 249 +~ 0;
#X obj 110 132 r \$0-thresh;
#X obj 112 178 r \$0-ratio;
#X obj 113 224 r \$0-thresh;
#X obj 77 79 abs~;
#X obj 234 32 inlet;
#X obj 234 57 switch~;
#X floatatom 110 157 5 0 0 0 - - -, f 5;
#X floatatom 112 203 5 0 0 0 - - -, f 5;
#X floatatom 113 249 5 0 0 0 - - -, f 5;
#X connect 0 0 10 0;
#X connect 2 0 4 0;
#X connect 3 0 5 0;
#X connect 4 0 3 0;
#X connect 5 0 1 0;
#X connect 6 0 5 1;
#X connect 7 0 2 1;
#X connect 7 0 13 0;
#X connect 8 0 4 1;
#X connect 8 0 14 0;
#X connect 9 0 3 1;
#X connect 9 0 15 0;
#X connect 10 0 2 0;
#X connect 10 0 6 0;
#X connect 11 0 12 0;
#X restore 339 153 pd abs-comp;
#X obj 108 180 r \$0-lookahead;
#X obj 240 202 clip~ 0 1;
#X obj 239 259 lop~;
#X obj 268 233 r \$0-response;
#X obj 324 50 r \$0-rmspeak;
#X obj 324 75 t f f;
#X obj 324 100 == 0;
#X obj 217 317 *~;
#X obj 33 39 *~ 2;
#X obj 33 9 inlet~;
#X obj 217 342 outlet~;
#N canvas 695 308 450 300 delWrite 0;
#X obj 61 34 inlet~;
#X obj 59 141 outlet~;
#X obj 60 65 delwrite~ \$0-comp1 500;
#X connect 0 0 2 0;
#X restore 32 134 pd delWrite;
#N canvas 0 50 450 300 delRead 0;
#X obj 56 107 outlet~;
#X obj 190 31 inlet;
#X obj 62 28 inlet~;
#X obj 56 82 delread~ \$0-comp1 0;
#X connect 1 0 3 0;
#X connect 3 0 0 0;
#X restore 31 211 pd delRead;
#X connect 0 0 3 0;
#X connect 1 0 3 0;
#X connect 2 0 14 1;
#X connect 3 0 4 0;
#X connect 4 0 9 1;
#X connect 5 0 4 1;
#X connect 6 0 7 0;
#X connect 7 0 8 0;
#X connect 7 1 1 1;
#X connect 8 0 0 1;
#X connect 9 0 12 0;
#X connect 10 0 0 0;
#X connect 10 0 1 0;
#X connect 10 0 13 0;
#X connect 11 0 10 0;
#X connect 13 0 14 0;
#X connect 14 0 9 0;
#X restore 47 393 pd comp1;
#X obj 748 145 inlet clock-time-ms;
#X obj 914 145 inlet play-pause;
#X connect 0 0 41 0;
#X connect 1 0 5 0;
#X connect 2 0 3 0;
#X connect 2 0 28 0;
#X connect 3 0 4 0;
#X connect 4 0 1 1;
#X connect 4 0 37 1;
#X connect 12 0 6 0;
#X connect 13 0 12 0;
#X connect 14 0 7 0;
#X connect 15 0 14 0;
#X connect 15 1 14 1;
#X connect 16 0 17 0;
#X connect 17 0 9 0;
#X connect 18 0 31 0;
#X connect 18 0 30 0;
#X connect 18 0 33 0;
#X connect 18 0 32 0;
#X connect 18 0 27 0;
#X connect 18 0 29 0;
#X connect 21 0 13 0;
#X connect 22 0 15 0;
#X connect 23 0 8 0;
#X connect 24 0 16 0;
#X connect 25 0 10 0;
#X connect 26 0 11 0;
#X connect 27 0 25 0;
#X connect 29 0 26 0;
#X connect 30 0 22 0;
#X connect 31 0 21 0;
#X connect 32 0 23 0;
#X connect 33 0 24 0;
#X connect 35 0 36 0;
#X connect 36 0 23 0;
#X connect 36 0 26 0;
#X connect 37 0 38 0;
#X connect 39 0 40 0;
#X connect 40 0 37 0;
#X connect 41 0 1 0;
