#N canvas 92 323 1322 590 12;
#X obj 44 327 inlet~;
#X obj 43 550 outlet~;
#X obj 605 4 inlet adjustment;
#X obj 682 376 sin;
#X floatatom 682 426 5 0 0 0 - - -, f 5;
#X obj 682 179 metro 1;
#X obj 682 204 f 0;
#X obj 720 204 + 1;
#X floatatom 756 27 5 0 0 0 - - -, f 5;
#X obj 682 229 mod 360;
#X obj 682 350 * 6.28319;
#X obj 682 252 / 360;
#X obj 682 401 + 1;
#X obj 682 448 * 5;
#X obj 682 105 loadbang;
#X msg 682 150 1;
#X obj 118 451 *~ 0.6;
#X obj 71 402 delwrite~ \$0-delay-fx-8a 1000;
#X obj 76 507 delread~ \$0-delay-fx-8a 30;
#X obj 324 327 inlet~;
#X obj 323 550 outlet~;
#X obj 398 451 *~ 0.6;
#X obj 351 402 delwrite~ \$0-delay-fx-8b 1000;
#X obj 356 507 delread~ \$0-delay-fx-8b 30;
#X floatatom 712 377 5 0 0 0 - - -, f 5;
#X obj 762 306 -;
#X obj 762 376 sin;
#X floatatom 762 426 5 0 0 0 - - -, f 5;
#X obj 762 350 * 6.28319;
#X obj 762 401 + 1;
#X obj 762 448 * 5;
#X floatatom 792 377 5 0 0 0 - - -, f 5;
#X obj 762 281 swap 1;
#X floatatom 762 331 5 0 0 0 - - -, f 5;
#X text 104 32 Phaser;
#X obj 768 59 t b f;
#X obj 605 34 * 128;
#X obj 605 59 change;
#X obj 605 81 + 0.1;
#X obj 756 112 t b f;
#X obj 756 90 / 16;
#X obj 976 5 inlet clock-time-ms;
#X obj 1142 5 inlet play-pause;
#X connect 0 0 1 0;
#X connect 0 0 17 0;
#X connect 2 0 36 0;
#X connect 3 0 12 0;
#X connect 4 0 13 0;
#X connect 5 0 6 0;
#X connect 6 0 7 0;
#X connect 6 0 9 0;
#X connect 7 0 6 1;
#X connect 8 0 40 0;
#X connect 9 0 11 0;
#X connect 10 0 3 0;
#X connect 10 0 24 0;
#X connect 11 0 10 0;
#X connect 11 0 32 0;
#X connect 12 0 4 0;
#X connect 13 0 18 0;
#X connect 14 0 15 0;
#X connect 15 0 5 0;
#X connect 16 0 17 0;
#X connect 18 0 1 0;
#X connect 18 0 16 0;
#X connect 19 0 20 0;
#X connect 19 0 22 0;
#X connect 21 0 22 0;
#X connect 23 0 20 0;
#X connect 23 0 21 0;
#X connect 25 0 33 0;
#X connect 26 0 29 0;
#X connect 27 0 30 0;
#X connect 28 0 26 0;
#X connect 28 0 31 0;
#X connect 29 0 27 0;
#X connect 30 0 23 0;
#X connect 32 0 25 0;
#X connect 32 1 25 1;
#X connect 33 0 28 0;
#X connect 35 0 40 0;
#X connect 35 1 40 1;
#X connect 36 0 37 0;
#X connect 37 0 38 0;
#X connect 38 0 35 0;
#X connect 39 0 15 0;
#X connect 39 1 5 1;
#X connect 40 0 39 0;
#X connect 41 0 8 0;
