#N canvas 139 333 1000 545 12;
#X obj 62 84 inlet~;
#X obj 61 512 outlet~;
#X floatatom 674 240 5 0 0 0 - - -, f 5;
#X obj 62 275 *~ 1;
#X obj 160 431 hip~ 500;
#X obj 94 361 *~ 0.75;
#X obj 161 463 lop~ 1000;
#X text 234 16 Filtered delay;
#X obj 62 461 *~ 1;
#X obj 674 215 * 1;
#X obj 784 84 inlet feedback;
#X obj 334 84 inlet multiplier;
#X obj 334 111 * 5;
#X obj 158 319 delwrite~ \$0-delaya 1000;
#X obj 159 398 delread~ \$0-delaya;
#X obj 202 84 inlet~;
#X obj 361 512 outlet~;
#X obj 362 275 *~ 1;
#X obj 460 431 hip~ 500;
#X obj 394 361 *~ 0.75;
#X obj 461 463 lop~ 1000;
#X obj 362 461 *~ 1;
#X obj 458 319 delwrite~ \$0-delayb 1000;
#X obj 459 398 delread~ \$0-delayb;
#X obj 674 262 + 10;
#X obj 334 136 t b f;
#X obj 476 84 inlet clock-time-ms;
#X obj 642 84 inlet play-pause;
#X connect 0 0 3 0;
#X connect 2 0 14 0;
#X connect 2 0 24 0;
#X connect 3 0 8 0;
#X connect 3 0 13 0;
#X connect 4 0 6 0;
#X connect 5 0 13 0;
#X connect 6 0 5 0;
#X connect 6 0 1 0;
#X connect 8 0 1 0;
#X connect 9 0 2 0;
#X connect 10 0 5 1;
#X connect 10 0 19 1;
#X connect 11 0 12 0;
#X connect 12 0 25 0;
#X connect 14 0 4 0;
#X connect 15 0 17 0;
#X connect 17 0 21 0;
#X connect 17 0 22 0;
#X connect 18 0 20 0;
#X connect 19 0 22 0;
#X connect 20 0 19 0;
#X connect 20 0 16 0;
#X connect 21 0 16 0;
#X connect 23 0 18 0;
#X connect 24 0 23 0;
#X connect 25 0 9 0;
#X connect 25 1 9 1;
#X connect 26 0 9 0;
