#N struct 1170-template float x float y float rgb;
#N canvas 284 465 550 427 10;
#X obj 0 0 metro-sprite0;
#X obj 0 0 metro-sprite1;
#X obj 0 0 metro-sprite2;
#X obj 0 0 metro-sprite3;
#X obj 188 65 t f b;
#X obj 188 42 inlet;
#X floatatom 188 87 5 0 0 0 - - -, f 5;
#X obj 243 44 hradio 15 1 0 16 empty empty empty 0 -8 0 10 -262144
-1 -1 0;
#X obj 137 159 sel 0 1;
#X obj 137 133 mod 4;
#X obj 100 103 sel 15 0;
#X msg 164 290 0;
#X msg 13 284 1;
#X msg 45 284 1;
#X msg 77 284 1;
#X msg 109 283 1;
#X obj 266 70 inlet turn-off;
#X obj 243 15 inlet rgb;
#X connect 4 0 6 0;
#X connect 4 0 10 0;
#X connect 4 1 11 0;
#X connect 5 0 4 0;
#X connect 7 0 4 0;
#X connect 8 0 14 0;
#X connect 8 1 14 0;
#X connect 8 2 15 0;
#X connect 9 0 8 0;
#X connect 10 0 12 0;
#X connect 10 1 13 0;
#X connect 10 2 9 0;
#X connect 11 0 1 0;
#X connect 11 0 0 0;
#X connect 11 0 3 0;
#X connect 11 0 2 0;
#X connect 12 0 2 0;
#X connect 13 0 3 0;
#X connect 14 0 0 0;
#X connect 15 0 1 0;
#X connect 16 0 11 0;
#X connect 17 0 3 1;
#X connect 17 0 2 1;
#X connect 17 0 0 1;
#X connect 17 0 1 1;
#X coords 0 -1 1 1 64 64 2 0 0;
