#N struct 1378-TBC-template float x float y float w float h float rgb
;
#N struct 1378-template float x float y float w float h;
#N canvas 65 85 1215 912 12;
#X msg 1285 532 traverse \$1 \, bang;
#X msg 750 384 clear;
#X obj 937 270 t b b b;
#X msg 937 245 1;
#X obj 1285 449 bng 15 250 50 0 empty empty empty 17 7 0 10 -262144
-1 -1;
#X obj 1285 557 pointer;
#N canvas 107 571 509 152 \$0-template 0;
#X obj 17 11 struct \$0-template float x float y float w float h;
#X obj 27 91 filledpolygon 0 0 0 0 0 w 0 w h 0 h 0 0;
#X text 90 65 Black rectangle;
#X restore 606 97 pd \$0-template;
#X obj 750 414 s pd-\$0-data;
#X obj 1285 507 symbol pd-\$0-data;
#N canvas 147 576 450 300 \$0-data 0;
#X scalar 1378-TBC-template 20 80 0 0 442 \;;
#X scalar 1378-template 0 237.5 470 420 \;;
#X coords 0 0 470 20 470 20 2 0 0;
#X restore 0 0 pd \$0-data;
#X obj 947 815 append \$0-template x y w h;
#X obj 1039 462 f 0;
#X obj 937 164 tgl 15 0 empty empty empty 17 7 0 10 -262144 -1 -1 0
1;
#X obj 1074 462 - 1;
#X obj 937 216 t b b;
#X obj 1057 656 s \$0-startup-finished;
#X obj 879 59 r \$0-startup-finished;
#X msg 879 84 0;
#X obj 879 109 t b f;
#X obj 879 144 del 1;
#X obj 847 462 f 0;
#X msg 868 436 0;
#X obj 1060 255 t b f;
#X obj 882 462 + 0.5;
#X obj 917 195 bng 15 250 50 0 empty empty empty 17 7 0 10 -262144
-1 -1;
#X obj 1119 462 f 0;
#X obj 1154 462 - 1;
#X obj 877 379 t b b;
#X obj 937 462 f 0;
#X msg 958 436 0;
#X obj 972 462 + 0.5;
#X msg 1235 169 470;
#X msg 1315 169 420;
#X obj 1033 367 spigot 1;
#X obj 1113 367 spigot 1;
#X obj 1127 510 >= 0;
#X obj 1057 606 &&;
#X msg 1169 262 1;
#X obj 1057 631 sel 1;
#X obj 1057 535 == 0;
#X obj 1127 535 == 0;
#X obj 1127 560 t b f;
#X obj 1057 510 >= 0;
#X obj 1171 22 inlet start;
#X msg 937 134 1, f 2;
#X msg 1202 351 5;
#X obj 1202 376 / 2;
#X obj 937 191 metro 5;
#X obj 1199 55 bng 15 250 50 0 empty empty empty 17 7 0 10 -262144
-1 -1;
#X obj 1060 218 t f;
#X obj 1140 218 t f;
#X obj 1171 95 t b b;
#X obj 1235 126 t b b;
#X obj 1235 99 bng 15 250 50 0 empty empty empty 17 7 0 10 -262144
-1 -1;
#X obj 1598 137 list length;
#X obj 1598 215 until;
#X obj 1598 250 f 0;
#X obj 1633 250 + 1;
#X obj 1598 162 t f b;
#X msg 1619 190 0;
#X obj 1607 344 list split 1;
#X obj 1625 313 list;
#X obj 1493 499 print;
#X obj 1615 405 list;
#X obj 1522 434 list prepend;
#X obj 1493 469 list;
#X obj 1572 107 t b a a b;
#X obj 1522 408 + 0;
#X obj 1543 311 mod 2;
#X obj 1543 336 * 10;
#X obj 1543 283 + 1;
#X msg 1572 65 81 82 45 143 45 143 93 147 93 147 109 116 109 116 91
109 91 109 105 86 105 86 83 82;
#X obj 1287 378 t b b b;
#N canvas 107 571 571 253 \$0-TBC-template 0;
#X text 30 98 T;
#X text 30 144 B;
#X text 30 189 C;
#X obj 49 90 filledpolygon rgb rgb 0 93 66 151 66 151 96 132 96 132
146 112 146 112 96 93 96 93 66;
#X obj 49 136 filledpolygon rgb rgb 0 181 66 231 66 241 86 231 106
241 126 231 146 181 146 181 66;
#X obj 49 182 filledpolygon rgb rgb 0 261 66 321 66 321 96 291 96 291
116 321 116 321 146 261 146 261 66;
#X obj 17 11 struct \$0-TBC-template float x float y float w float
h float rgb;
#X restore 606 117 pd \$0-TBC-template;
#X text 674 11 Startup animation uses structs to draw "vector" image.
;
#X text 583 67 Vector data stored here;
#X text 1516 25 List processing for debugging;
#X obj 1180 815 append \$0-TBC-template x y w h rgb;
#X obj 1397 20 inlet rgb;
#X obj 1180 749 t b b b;
#X msg 1287 784 0;
#X obj 1332 332 bng 15 250 50 0 empty empty empty 17 7 0 10 -262144
-1 -1;
#X msg 1180 784 20;
#X msg 1233 784 80;
#X obj 1395 784 f;
#X msg 958 765 0;
#X obj 1311 673 t b b;
#X obj 1297 719 del 50;
#X obj 1397 64 spigot 1;
#X obj 1397 94 t b b a b;
#X msg 1480 65 0;
#X connect 0 0 5 0;
#X connect 1 0 7 0;
#X connect 2 0 27 0;
#X connect 2 1 4 0;
#X connect 2 2 1 0;
#X connect 3 0 2 0;
#X connect 4 0 8 0;
#X connect 5 0 10 4;
#X connect 5 0 77 5;
#X connect 8 0 0 0;
#X connect 11 0 13 0;
#X connect 11 0 10 2;
#X connect 11 0 42 0;
#X connect 12 0 47 0;
#X connect 13 0 11 1;
#X connect 14 0 3 0;
#X connect 14 1 33 0;
#X connect 14 1 34 0;
#X connect 16 0 17 0;
#X connect 17 0 18 0;
#X connect 18 0 19 0;
#X connect 18 1 12 0;
#X connect 19 0 1 0;
#X connect 20 0 23 0;
#X connect 20 0 10 0;
#X connect 21 0 20 1;
#X connect 22 0 21 0;
#X connect 22 0 29 0;
#X connect 22 1 11 1;
#X connect 23 0 20 1;
#X connect 24 0 14 0;
#X connect 25 0 26 0;
#X connect 25 0 10 3;
#X connect 25 0 35 0;
#X connect 26 0 25 1;
#X connect 27 0 20 0;
#X connect 27 1 28 0;
#X connect 28 0 30 0;
#X connect 28 0 10 1;
#X connect 29 0 28 1;
#X connect 30 0 28 1;
#X connect 31 0 49 0;
#X connect 31 0 10 2;
#X connect 32 0 50 0;
#X connect 32 0 10 3;
#X connect 33 0 11 0;
#X connect 34 0 25 0;
#X connect 35 0 34 1;
#X connect 35 0 40 0;
#X connect 36 0 38 0;
#X connect 37 0 33 1;
#X connect 37 0 34 1;
#X connect 38 0 15 0;
#X connect 39 0 36 0;
#X connect 40 0 41 0;
#X connect 41 0 36 0;
#X connect 41 1 36 1;
#X connect 42 0 33 1;
#X connect 42 0 39 0;
#X connect 43 0 51 0;
#X connect 44 0 12 0;
#X connect 45 0 46 0;
#X connect 45 0 13 1;
#X connect 45 0 26 1;
#X connect 46 0 23 1;
#X connect 46 0 30 1;
#X connect 47 0 14 0;
#X connect 48 0 51 0;
#X connect 49 0 22 0;
#X connect 50 0 25 1;
#X connect 51 0 44 0;
#X connect 51 1 37 0;
#X connect 51 1 45 0;
#X connect 51 1 52 0;
#X connect 52 0 31 0;
#X connect 52 1 32 0;
#X connect 53 0 52 0;
#X connect 54 0 58 0;
#X connect 55 0 56 0;
#X connect 55 0 61 0;
#X connect 56 0 57 0;
#X connect 56 0 70 0;
#X connect 57 0 56 1;
#X connect 58 0 55 0;
#X connect 58 1 59 0;
#X connect 59 0 56 1;
#X connect 60 0 67 0;
#X connect 60 1 61 1;
#X connect 61 0 60 0;
#X connect 63 0 64 1;
#X connect 64 0 63 0;
#X connect 64 0 65 1;
#X connect 65 0 62 0;
#X connect 66 0 65 0;
#X connect 66 1 54 0;
#X connect 66 2 61 0;
#X connect 66 3 64 1;
#X connect 67 0 64 0;
#X connect 68 0 69 0;
#X connect 69 0 67 1;
#X connect 70 0 68 0;
#X connect 71 0 66 0;
#X connect 72 1 53 0;
#X connect 72 1 86 0;
#X connect 72 2 4 0;
#X connect 78 0 88 0;
#X connect 79 0 82 0;
#X connect 79 1 83 0;
#X connect 79 2 80 0;
#X connect 79 2 84 0;
#X connect 80 0 77 2;
#X connect 80 0 77 3;
#X connect 81 0 72 0;
#X connect 82 0 77 0;
#X connect 83 0 77 1;
#X connect 84 0 77 4;
#X connect 85 0 10 0;
#X connect 85 0 10 1;
#X connect 86 0 87 0;
#X connect 86 1 85 0;
#X connect 87 0 79 0;
#X connect 88 0 89 0;
#X connect 89 0 72 0;
#X connect 89 0 52 0;
#X connect 89 1 1 0;
#X connect 89 2 84 1;
#X connect 89 3 90 0;
#X connect 90 0 88 1;
#X coords 0 0 1 1 470 20 2 0 0;
