#N canvas 80 102 1047 825 12;
#X obj 344 260 inlet;
#X obj 342 521 change;
#X obj 342 566 t b f;
#X msg 342 700 packed-grid-buttons;
#X obj 342 785 array define \$0-osc-grid-button-states 16;
#X obj 342 758 array set \$0-osc-grid-button-states;
#X obj 342 496 spigot 0;
#X obj 402 423 loadbang;
#X msg 402 473 1;
#X obj 402 448 del 1000;
#X text 477 423 Wait one second to let the patches load;
#X obj 693 785 array define \$0-osc-other-button-states 11;
#X obj 693 758 array set \$0-osc-other-button-states;
#N canvas 159 179 596 679 other-buttons 0;
#X msg 20 53 sound-btn-s;
#X obj 20 623 pack 0 0 0 0 0 0 0 0 0 0 0;
#X obj 257 9 inlet bang;
#X obj 465 9 inlet patch-id;
#X obj 465 124 t f;
#X obj 20 648 outlet;
#X msg 40 73 pattern-btn-s;
#X msg 61 93 bpm-btn-s;
#X msg 81 113 samples-btn-s;
#X msg 102 133 ext-step-s;
#X msg 122 153 key-control-btn-s;
#X msg 143 173 midi-control-btn-s;
#X msg 163 193 funct-btn-s;
#X msg 183 213 fx-btn-s;
#X msg 204 233 play-btn-s;
#X msg 224 253 write-btn-s;
#X obj 40 410 t b f;
#X obj 61 430 t b f;
#X obj 81 450 t b f;
#X obj 102 470 t b f;
#X obj 122 490 t b f;
#X obj 143 510 t b f;
#X obj 163 530 t b f;
#X obj 184 550 t b f;
#X obj 204 570 t b f;
#X obj 225 590 t b f;
#X obj 20 283 tbc-utils/receive-generator;
#X obj 40 303 tbc-utils/receive-generator;
#X obj 61 323 tbc-utils/receive-generator;
#X obj 81 343 tbc-utils/receive-generator;
#X obj 102 363 tbc-utils/receive-generator;
#X obj 122 383 tbc-utils/receive-generator;
#X obj 143 403 tbc-utils/receive-generator;
#X obj 163 423 tbc-utils/receive-generator;
#X obj 184 443 tbc-utils/receive-generator;
#X obj 204 463 tbc-utils/receive-generator;
#X obj 225 483 tbc-utils/receive-generator;
#X connect 0 0 26 0;
#X connect 1 0 5 0;
#X connect 2 0 0 0;
#X connect 2 0 6 0;
#X connect 2 0 7 0;
#X connect 2 0 8 0;
#X connect 2 0 9 0;
#X connect 2 0 10 0;
#X connect 2 0 11 0;
#X connect 2 0 12 0;
#X connect 2 0 13 0;
#X connect 2 0 14 0;
#X connect 2 0 15 0;
#X connect 3 0 4 0;
#X connect 4 0 26 1;
#X connect 4 0 27 1;
#X connect 4 0 28 1;
#X connect 4 0 29 1;
#X connect 4 0 30 1;
#X connect 4 0 31 1;
#X connect 4 0 32 1;
#X connect 4 0 33 1;
#X connect 4 0 34 1;
#X connect 4 0 35 1;
#X connect 4 0 36 1;
#X connect 6 0 27 0;
#X connect 7 0 28 0;
#X connect 8 0 29 0;
#X connect 9 0 30 0;
#X connect 10 0 31 0;
#X connect 11 0 32 0;
#X connect 12 0 33 0;
#X connect 13 0 34 0;
#X connect 14 0 35 0;
#X connect 15 0 36 0;
#X connect 16 0 1 0;
#X connect 16 1 1 1;
#X connect 17 0 1 0;
#X connect 17 1 1 2;
#X connect 18 0 1 0;
#X connect 18 1 1 3;
#X connect 19 0 1 0;
#X connect 19 1 1 4;
#X connect 20 0 1 0;
#X connect 20 1 1 5;
#X connect 21 0 1 0;
#X connect 21 1 1 6;
#X connect 22 0 1 0;
#X connect 22 1 1 7;
#X connect 23 0 1 0;
#X connect 23 1 1 8;
#X connect 24 0 1 0;
#X connect 24 1 1 9;
#X connect 25 0 1 0;
#X connect 25 1 1 10;
#X connect 26 0 1 0;
#X connect 27 0 16 0;
#X connect 28 0 17 0;
#X connect 29 0 18 0;
#X connect 30 0 19 0;
#X connect 31 0 20 0;
#X connect 32 0 21 0;
#X connect 33 0 22 0;
#X connect 34 0 23 0;
#X connect 35 0 24 0;
#X connect 36 0 25 0;
#X restore 693 728 pd other-buttons;
#X obj 342 647 t b;
#X obj 556 663 t f;
#X obj 759 256 inlet from-port;
#X obj 539 257 inlet to-port;
#X obj 759 319 s \$0-from-port-gui-r;
#X obj 539 319 s \$0-to-port-gui-r;
#X obj 658 260 loadbang;
#X msg 694 292 3301;
#X msg 551 292 3300;
#X obj 53 334 loadbang;
#X msg 53 366 100;
#X obj 53 388 s \$0-gui-update-rate-r;
#X obj 342 728 tbc-utils/receive-generator;
#X obj 51 175 cnv 15 248 129 empty empty EXP 10 12 0 14 -233017 -66577
0;
#X floatatom 60 238 6 0 0 1 port_to_processing #0-to-port-gui-r #0-to-port-gui-s
, f 6;
#X floatatom 60 258 6 0 0 1 port_from_processing #0-from-port-gui-r
#0-from-port-gui-s, f 6;
#X obj 60 200 tgl 30 0 \$0-enable-connection-s \$0-enable-connection-r
Enable 35 10 0 12 -262144 -1 -1 0 1;
#X floatatom 60 278 4 10 1000 1 send_rate_ms #0-gui-update-rate-r #0-gui-update-rate-s
, f 4;
#X obj 156 175 cnv 15 10 10 empty empty TO 10 12 0 14 -233017 -66577
0;
#X obj 251 175 cnv 15 10 10 empty empty FROM 10 12 0 14 -233017 -66577
0;
#X obj 15 58 cnv 15 300 80 empty empty empty 20 12 0 14 -261234 -66577
0;
#X text 38 60 NOTE:;
#X text 18 90 PD must have "oscx" external;
#X text 17 110 Processing must have "oscP5" library;
#N canvas 65 81 959 537 send-data-to-processing 0;
#X obj 263 447 sendOSC;
#X floatatom 263 472 5 0 0 0 Connected - -, f 5;
#X msg 88 331 disconnect;
#X msg 263 418 send /gridbtn \$1 \$2;
#X obj 263 388 pack f f;
#X obj 300 358 array get \$0-osc-grid-button-states;
#X msg 438 334 1;
#X obj 438 312 loadbang;
#X obj 263 281 f 0;
#X obj 291 281 + 1;
#X floatatom 263 306 5 0 0 0 - - -, f 5;
#X obj 263 225 until;
#X msg 263 172 16;
#X msg 284 255 0;
#X obj 263 197 t f b;
#X obj 263 328 t f f;
#X obj 263 123 tgl 15 0 empty empty empty 17 7 0 10 -262144 -1 -1 1
1;
#X obj 263 142 metro 100;
#X msg 263 99 1;
#X msg 610 418 send /otherbtn \$1 \$2;
#X obj 610 277 f 0;
#X obj 638 277 + 1;
#X floatatom 610 302 5 0 0 0 - - -, f 5;
#X obj 610 221 until;
#X msg 631 251 0;
#X obj 610 193 t f b;
#X msg 610 168 11;
#X obj 610 389 pack f f;
#X msg 789 334 1;
#X obj 789 312 loadbang;
#X obj 610 328 t f f;
#X obj 647 358 array get \$0-osc-other-button-states;
#X msg 22 371 connect localhost \$1;
#X obj 51 278 r \$0-enable-connection-s;
#X obj 51 300 sel 1;
#X obj 22 335 f;
#X msg 232 99 0;
#X obj 263 43 r \$0-gui-update-rate-s;
#X obj 263 70 t b f;
#X obj 22 243 r \$0-to-port-gui-s;
#X text 358 109 Handle all buttons going to Processing;
#X text 365 448 \$1 : Button index;
#X text 365 468 \$2 : On/Off (1/0);
#X connect 0 0 1 0;
#X connect 2 0 0 0;
#X connect 3 0 0 0;
#X connect 4 0 3 0;
#X connect 5 0 4 1;
#X connect 6 0 5 1;
#X connect 7 0 6 0;
#X connect 8 0 9 0;
#X connect 8 0 10 0;
#X connect 9 0 8 1;
#X connect 10 0 15 0;
#X connect 11 0 8 0;
#X connect 12 0 14 0;
#X connect 13 0 8 1;
#X connect 14 0 11 0;
#X connect 14 1 13 0;
#X connect 15 0 4 0;
#X connect 15 1 5 0;
#X connect 16 0 17 0;
#X connect 17 0 12 0;
#X connect 17 0 26 0;
#X connect 18 0 16 0;
#X connect 19 0 0 0;
#X connect 20 0 21 0;
#X connect 20 0 22 0;
#X connect 21 0 20 1;
#X connect 22 0 30 0;
#X connect 23 0 20 0;
#X connect 24 0 20 1;
#X connect 25 0 23 0;
#X connect 25 1 24 0;
#X connect 26 0 25 0;
#X connect 27 0 19 0;
#X connect 28 0 31 1;
#X connect 29 0 28 0;
#X connect 30 0 27 0;
#X connect 30 1 31 0;
#X connect 31 0 27 1;
#X connect 32 0 0 0;
#X connect 33 0 34 0;
#X connect 34 0 35 0;
#X connect 34 0 18 0;
#X connect 34 1 2 0;
#X connect 34 1 36 0;
#X connect 35 0 32 0;
#X connect 36 0 16 0;
#X connect 37 0 38 0;
#X connect 38 0 18 0;
#X connect 38 1 17 1;
#X connect 39 0 35 0;
#X restore 662 648 pd send-data-to-processing;
#N canvas 65 81 695 513 handle-data-from-processing 0;
#X obj 305 435 s;
#X obj 286 289 unpack;
#X obj 286 353 f;
#X obj 286 323 t b f;
#X msg 323 405 symbol \$2-grid-btn-\$1-r;
#X obj 323 375 pack f f;
#X text 84 55 Handle all buttons coming from Processing;
#N canvas 386 261 469 676 other-buttons-sends 0;
#X obj 19 445 s;
#X obj 342 56 inlet patch-id;
#X obj 342 81 f;
#X obj 19 14 inlet;
#X msg 40 365 symbol \$1-sound-btn-r;
#X obj 39 465 s;
#X obj 59 485 s;
#X obj 79 505 s;
#X obj 99 525 s;
#X obj 119 545 s;
#X obj 139 565 s;
#X obj 159 585 s;
#X obj 19 123 t f;
#X obj 39 143 t f;
#X obj 59 163 t f;
#X obj 79 183 t f;
#X obj 99 203 t f;
#X obj 119 223 t f;
#X obj 139 243 t f;
#X obj 159 263 t f;
#X obj 179 605 s;
#X obj 199 625 s;
#X obj 219 645 s;
#X obj 179 283 t f;
#X obj 199 303 t f;
#X obj 219 323 t f;
#X obj 19 55 route 0 1 2 3 4 5 6 7 8 9 10;
#X msg 60 385 symbol \$1-pattern-btn-r;
#X msg 80 405 symbol \$1-bpm-btn-r;
#X msg 100 425 symbol \$1-samples-btn-r;
#X msg 120 445 symbol \$1-ext-step-r;
#X msg 140 465 symbol \$1-key-control-r;
#X msg 160 485 symbol \$1-midi-control-r;
#X msg 180 505 symbol \$1-funct-btn-r;
#X msg 200 525 symbol \$1-fx-btn-r;
#X msg 220 545 symbol \$1-play-btn-r;
#X msg 240 565 symbol \$1-write-btn-r;
#X connect 1 0 2 0;
#X connect 2 0 4 0;
#X connect 2 0 27 0;
#X connect 2 0 28 0;
#X connect 2 0 29 0;
#X connect 2 0 30 0;
#X connect 2 0 31 0;
#X connect 2 0 32 0;
#X connect 2 0 33 0;
#X connect 2 0 34 0;
#X connect 2 0 35 0;
#X connect 2 0 36 0;
#X connect 3 0 26 0;
#X connect 4 0 0 1;
#X connect 12 0 0 0;
#X connect 13 0 5 0;
#X connect 14 0 6 0;
#X connect 15 0 7 0;
#X connect 16 0 8 0;
#X connect 17 0 9 0;
#X connect 18 0 10 0;
#X connect 19 0 11 0;
#X connect 23 0 20 0;
#X connect 24 0 21 0;
#X connect 25 0 22 0;
#X connect 26 0 12 0;
#X connect 26 1 13 0;
#X connect 26 2 14 0;
#X connect 26 3 15 0;
#X connect 26 4 16 0;
#X connect 26 5 17 0;
#X connect 26 6 18 0;
#X connect 26 7 19 0;
#X connect 26 8 23 0;
#X connect 26 9 24 0;
#X connect 26 10 25 0;
#X connect 27 0 5 1;
#X connect 28 0 6 1;
#X connect 29 0 7 1;
#X connect 30 0 8 1;
#X connect 31 0 9 1;
#X connect 32 0 10 1;
#X connect 33 0 11 1;
#X connect 34 0 20 1;
#X connect 35 0 21 1;
#X connect 36 0 22 1;
#X restore 441 433 pd other-buttons-sends;
#X obj 286 264 route /gridbtn /otherbtn;
#N canvas 917 202 469 563 dumpOSC-generator 0;
#X obj 37 10 inlet;
#X obj 64 40 inlet;
#X obj 91 99 f \$0;
#X obj 91 70 loadbang;
#X obj 142 102 bng 15 250 50 0 empty empty empty 17 7 0 10 -262144
-1 -1;
#X obj 91 149 symbol;
#X obj 164 164 bng 15 250 50 0 empty empty empty 17 7 0 10 -262144
-1 -1;
#X obj 37 254 t a a a a a;
#X msg 55 429 \; \$3 connect 0 0 1 0;
#X obj 294 136 outlet;
#X msg 111 281 \; \$3 clear;
#X msg 74 375 \; \$3 obj 10 40 s \$4-outlet;
#X obj 294 102 r \$0-outlet;
#N canvas 13 498 450 300 \$0-dumpOSC-receiver 0;
#X obj 10 10 dumpOSC 3301;
#X obj 10 40 s 1414-outlet;
#X connect 0 0 1 0;
#X restore 294 74 pd \$0-dumpOSC-receiver;
#X msg 91 124 pd-\$1-dumpOSC-receiver;
#X obj 37 199 pack f f s f;
#X msg 92 325 \; \$3 obj 10 10 dumpOSC \$1;
#X connect 0 0 15 0;
#X connect 1 0 15 1;
#X connect 2 0 14 0;
#X connect 2 0 15 3;
#X connect 3 0 2 0;
#X connect 4 0 2 0;
#X connect 5 0 15 2;
#X connect 6 0 5 0;
#X connect 7 1 8 0;
#X connect 7 2 11 0;
#X connect 7 3 16 0;
#X connect 7 4 10 0;
#X connect 12 0 9 0;
#X connect 14 0 5 0;
#X connect 15 0 7 0;
#X restore 286 172 pd dumpOSC-generator;
#X obj 476 111 t f;
#X obj 64 120 r \$0-enable-connection-s;
#X obj 64 142 sel 1;
#X obj 286 244 spigot 1;
#X msg 64 164 1, f 2;
#X msg 96 164 0, f 2;
#X obj 64 186 t f;
#X obj 286 120 r \$0-from-port-gui-s;
#X obj 475 38 inlet;
#X connect 1 0 3 0;
#X connect 1 1 2 1;
#X connect 2 0 0 0;
#X connect 3 0 2 0;
#X connect 3 1 5 0;
#X connect 4 0 0 1;
#X connect 5 0 4 0;
#X connect 8 0 1 0;
#X connect 8 1 7 0;
#X connect 9 0 13 0;
#X connect 10 0 5 1;
#X connect 10 0 7 1;
#X connect 10 0 9 1;
#X connect 11 0 12 0;
#X connect 12 0 14 0;
#X connect 12 1 15 0;
#X connect 13 0 8 0;
#X connect 14 0 16 0;
#X connect 15 0 16 0;
#X connect 16 0 13 1;
#X connect 17 0 9 0;
#X connect 18 0 10 0;
#X restore 662 618 pd handle-data-from-processing;
#X obj 51 169 cnv 5 248 5 empty \$0-cnv-color empty 10 12 0 14 -262144
-262144 0;
#X text 384 24 This patch is designed to send GUI data from PD to Processing.
I was planning on creating a nice looking GUI for The Beat Cop in processing
\, but didn't finish it.;
#X text 384 79 TODO:;
#X text 432 129 Finish up the processing code to handle knob data.
;
#X text 432 99 Send and received knob data.;
#X text 95 62 This patch is WIP!;
#X text 432 159 Handle sending display information to Processing \,
including the data that is shown on the LCD and the labels for the
buttons / knobs;
#X text 17 3 v0.1.0 megalon 2017;
#X obj 344 285 change -1;
#X obj 373 372 s \$0-cnv-color;
#X obj 373 347 tbc-utils/color-canvas-for-exp;
#X connect 0 0 48 0;
#X connect 1 0 2 0;
#X connect 2 0 14 0;
#X connect 2 1 15 0;
#X connect 2 1 39 0;
#X connect 3 0 26 0;
#X connect 6 0 1 0;
#X connect 7 0 9 0;
#X connect 8 0 6 1;
#X connect 9 0 8 0;
#X connect 13 0 12 0;
#X connect 14 0 3 0;
#X connect 14 0 13 0;
#X connect 15 0 13 1;
#X connect 15 0 26 1;
#X connect 16 0 18 0;
#X connect 17 0 19 0;
#X connect 20 0 22 0;
#X connect 20 0 21 0;
#X connect 21 0 18 0;
#X connect 22 0 19 0;
#X connect 23 0 24 0;
#X connect 24 0 25 0;
#X connect 26 0 5 0;
#X connect 48 0 6 0;
#X connect 48 0 50 0;
#X connect 50 0 49 0;
#X coords 0 -1 1 1 250 155 1 50 150;
