#N canvas 191 66 1558 884 12;
#X floatatom 77 140 5 0 0 1 Patch_ID - -, f 5;
#X obj 433 330 inlet;
#X obj 470 502 t f;
#X obj 483 330 inlet;
#X obj 533 330 inlet;
#X obj 583 330 inlet;
#X obj 77 85 inlet exp;
#X obj 673 330 inlet;
#X obj 723 330 inlet;
#X obj 773 330 inlet;
#X obj 823 330 inlet;
#X obj 913 330 inlet;
#X obj 963 330 inlet;
#X obj 1013 330 inlet;
#X obj 1063 330 inlet;
#X obj 1153 330 inlet;
#X obj 1203 330 inlet;
#X obj 1253 330 inlet;
#X obj 1303 330 inlet;
#X obj 433 793 spigot 0;
#X msg 392 709 1;
#X text 523 792 <-- Only output if we have received a patch ID from
EXP inlet.;
#X obj 601 125 cnv 15 488 145 empty \$0-cnv-bg-light EXP 2 12 0 14
-228856 -66577 0;
#X obj 601 119 cnv 5 488 5 empty \$0-cnv-color empty 20 12 0 14 -123986
-123986 0;
#X text 627 155 0;
#X text 654 155 1;
#X text 682 155 2;
#X text 710 155 3;
#X text 738 155 4;
#X text 767 155 5;
#X text 795 155 6;
#X text 824 155 7;
#X text 852 155 8;
#X text 881 155 9;
#X text 906 155 10;
#X text 935 155 11;
#X text 963 155 12;
#X text 991 155 13;
#X text 1020 155 14;
#X text 1049 155 15;
#X obj 433 823 clip 0 1;
#X obj 433 853 s;
#X text 246 10 Control the sample start positions in the connected
instance of The Beat Cop.;
#X obj 433 461 tbc-utils/exp-16-input-helper;
#X obj 77 315 t f f b;
#X obj 470 703 spigot;
#X obj 530 703 spigot;
#X obj 392 460 t b;
#X obj 575 679 == 0;
#X obj 77 455 t f;
#X msg 470 589 symbol \$2-grid-knob-\$1-r;
#X text 634 182 <-VOLUME;
#X text 634 198 <-START POSITION;
#X text 634 214 <-LENGTH;
#X obj 1074 125 cnv 15 15 15 empty \$0-cnv-bg-light SEL -10 12 0 14
-228856 -66577 0;
#X obj 1393 330 inlet selector;
#X obj 643 528 r \$0-selection;
#X obj 852 461 r \$0-selector-s;
#X obj 1393 355 s \$0-selector-r;
#X obj 852 660 s \$0-selection;
#X obj 470 562 pack f f sample-volume;
#X msg 852 529 symbol sample-volume;
#X msg 872 549 symbol sample-start-position;
#X msg 892 569 symbol sample-start-length;
#X msg 530 619 symbol \$2-\$3-\$1;
#X obj 1152 461 r \$0-selector-s;
#X obj 1152 660 s \$0-required-state;
#X msg 1152 529 symbol one-shot-mode;
#X msg 1172 549 symbol sound-mode;
#X msg 1192 569 symbol samples-mode;
#X obj 77 110 change -1;
#X obj 1018 463 loadbang;
#X text 1017 420 VVVVV Loadbang assumes TBC starts in one-shot-mode
;
#X obj 218 165 s \$0-cnv-color;
#N canvas 0 50 804 637 get-state-from-tbc 0;
#X msg 50 498 1;
#X obj 423 558 t f;
#X obj 50 468 sel one-shot-mode;
#X obj 50 261 tbc-utils/receive-generator;
#X obj 50 437 symbol;
#X obj 68 372 t b a;
#X msg 50 233 global-state-on;
#X obj 226 15 inlet;
#X obj 308 325 r \$0-required-state;
#X obj 290 468 sel one-shot-mode;
#X obj 290 261 tbc-utils/receive-generator;
#X obj 290 437 symbol;
#X msg 290 233 global-state-off;
#X msg 423 498 0;
#X obj 423 583 outlet;
#X obj 308 352 t a b a;
#X obj 252 144 s;
#X msg 273 114 symbol \$1-get-global-state;
#X obj 252 84 t b f;
#X obj 534 268 tbc-utils/receive-generator;
#X msg 534 240 global-state-stored;
#X obj 534 363 t a a;
#X obj 534 182 t b f;
#X obj 226 174 t b f;
#X obj 226 42 t f f f;
#X text 538 157 First get the current state;
#X text 37 175 Get any state changes;
#X text 341 13 Get the state of the connected TBC when it is first
connected \, then get the state whenever it changes.;
#X connect 0 0 1 0;
#X connect 1 0 14 0;
#X connect 2 0 0 0;
#X connect 3 0 4 0;
#X connect 4 0 2 0;
#X connect 5 0 4 0;
#X connect 5 1 2 1;
#X connect 6 0 3 0;
#X connect 7 0 24 0;
#X connect 8 0 15 0;
#X connect 9 1 13 0;
#X connect 10 0 11 0;
#X connect 11 0 9 0;
#X connect 12 0 10 0;
#X connect 13 0 1 0;
#X connect 15 0 5 0;
#X connect 15 1 11 0;
#X connect 15 2 9 1;
#X connect 17 0 16 1;
#X connect 18 0 16 0;
#X connect 18 1 17 0;
#X connect 19 0 21 0;
#X connect 20 0 19 0;
#X connect 21 0 4 0;
#X connect 21 1 11 0;
#X connect 22 0 20 0;
#X connect 22 1 19 1;
#X connect 23 0 6 0;
#X connect 23 0 12 0;
#X connect 23 1 10 1;
#X connect 23 1 3 1;
#X connect 24 0 23 0;
#X connect 24 1 18 0;
#X connect 24 2 22 0;
#X restore 77 425 pd get-state-from-tbc;
#X text 627 120 |;
#X text 627 134 |;
#X text 654 120 |;
#X text 654 134 |;
#X text 682 120 |;
#X text 682 134 |;
#X text 710 120 |;
#X text 710 134 |;
#X text 739 120 |;
#X text 739 134 |;
#X text 767 120 |;
#X text 767 134 |;
#X text 795 120 |;
#X text 795 134 |;
#X text 824 120 |;
#X text 824 134 |;
#X text 853 120 |;
#X text 853 134 |;
#X text 882 120 |;
#X text 882 134 |;
#X text 910 120 |;
#X text 910 134 |;
#X text 938 120 |;
#X text 938 134 |;
#X text 967 120 |;
#X text 967 134 |;
#X text 996 120 |;
#X text 996 134 |;
#X text 1024 120 |;
#X text 1024 134 |;
#X text 1053 120 |;
#X text 1053 134 |;
#X msg 1212 589 symbol fx-mode;
#X msg 912 589 symbol fx-parameter;
#X obj 1152 486 sel 0 1 2 3 4;
#X msg 1232 609 symbol funct-mode;
#X obj 852 486 sel 0 1 2 3 4;
#X msg 932 609 symbol funct-parameter;
#X obj 610 186 vradio 15 1 0 5 \$0-selector-s \$0-selector-r empty
0 -8 0 10 -228856 -1 -1 3;
#X text 634 229 <-FX PARAMETER;
#X text 634 244 <-FUNCT PARAMETER;
#X obj 218 140 tbc-utils/color-canvas-for-exp;
#X text 596 703 <-- If we are in the state for the value we are trying
to modify (like if we are in FX mode and modifying the FX params) then
send the data directly to the knobs. Otherwise \, send the data to
the receive associated with the value we are modifying.;
#X text 246 51 Input value is clipped to be between 0 and 1;
#X text 10 12 v1.0.0 megalon 2018;
#X connect 0 0 44 0;
#X connect 1 0 43 0;
#X connect 2 0 60 0;
#X connect 3 0 43 1;
#X connect 4 0 43 2;
#X connect 5 0 43 3;
#X connect 6 0 70 0;
#X connect 7 0 43 4;
#X connect 8 0 43 5;
#X connect 9 0 43 6;
#X connect 10 0 43 7;
#X connect 11 0 43 8;
#X connect 12 0 43 9;
#X connect 13 0 43 10;
#X connect 14 0 43 11;
#X connect 15 0 43 12;
#X connect 16 0 43 13;
#X connect 17 0 43 14;
#X connect 18 0 43 15;
#X connect 19 0 40 0;
#X connect 20 0 19 1;
#X connect 40 0 41 0;
#X connect 43 0 19 0;
#X connect 43 1 2 0;
#X connect 44 0 74 0;
#X connect 44 1 60 1;
#X connect 44 2 47 0;
#X connect 45 0 41 1;
#X connect 46 0 41 1;
#X connect 47 0 20 0;
#X connect 48 0 46 1;
#X connect 49 0 45 1;
#X connect 49 0 48 0;
#X connect 50 0 45 0;
#X connect 55 0 58 0;
#X connect 56 0 60 2;
#X connect 57 0 111 0;
#X connect 60 0 50 0;
#X connect 60 0 64 0;
#X connect 61 0 59 0;
#X connect 62 0 59 0;
#X connect 63 0 59 0;
#X connect 64 0 46 0;
#X connect 65 0 109 0;
#X connect 67 0 66 0;
#X connect 68 0 66 0;
#X connect 69 0 66 0;
#X connect 70 0 0 0;
#X connect 70 0 116 0;
#X connect 71 0 61 0;
#X connect 71 0 67 0;
#X connect 74 0 49 0;
#X connect 107 0 66 0;
#X connect 108 0 59 0;
#X connect 109 0 67 0;
#X connect 109 1 68 0;
#X connect 109 2 69 0;
#X connect 109 3 107 0;
#X connect 109 4 110 0;
#X connect 110 0 66 0;
#X connect 111 0 61 0;
#X connect 111 1 62 0;
#X connect 111 2 63 0;
#X connect 111 3 108 0;
#X connect 111 4 112 0;
#X connect 112 0 59 0;
#X connect 116 0 73 0;
#X coords 0 -1 1 1 490 171 1 600 100;
