#N canvas 0 81 1215 650 12;
#X floatatom 63 356 5 0 0 0 - - -, f 5;
#X msg 63 478 set \$1-audio-out-L-0;
#X obj 63 829 outlet~;
#X obj 63 441 f;
#X msg 73 498 set \$1-audio-out-R-0;
#X obj 73 849 outlet~;
#X obj 93 869 outlet~;
#X obj 93 421 f;
#X obj 103 889 outlet~;
#X msg 93 518 set \$1-audio-out-L-1;
#X msg 103 538 set \$1-audio-out-R-1;
#X obj 123 909 outlet~;
#X obj 123 401 f;
#X obj 133 929 outlet~;
#X obj 153 949 outlet~;
#X obj 153 381 f;
#X obj 163 969 outlet~;
#X msg 123 558 set \$1-audio-out-L-2;
#X msg 133 578 set \$1-audio-out-R-2;
#X msg 153 598 set \$1-audio-out-L-3;
#X msg 163 618 set \$1-audio-out-R-3;
#X obj 552 210 send~ \$0-temp;
#X obj 63 654 receive~ \$0-temp;
#X obj 73 674 receive~ \$0-temp;
#X obj 93 694 receive~ \$0-temp;
#X obj 103 714 receive~ \$0-temp;
#X obj 123 734 receive~ \$0-temp;
#X obj 133 754 receive~ \$0-temp;
#X obj 153 774 receive~ \$0-temp;
#X obj 163 794 receive~ \$0-temp;
#X obj 101 125 cnv 15 478 54 empty \$0-cnv-bg-light EXP 10 12 0 14
-228856 -66577 0;
#X obj 127 149 cnv 15 30 30 empty \$0-cnv-bg-dark empty 20 12 0 14
-191407 -70751 0;
#X obj 187 149 cnv 15 30 30 empty \$0-cnv-bg-dark empty 20 12 0 14
-191407 -70751 0;
#X obj 248 149 cnv 15 30 30 empty \$0-cnv-bg-dark empty 20 12 0 14
-191407 -70751 0;
#X obj 309 149 cnv 15 30 30 empty \$0-cnv-bg-dark empty 20 12 0 14
-191407 -70751 0;
#X obj 370 149 cnv 15 30 30 empty \$0-cnv-bg-dark empty 20 12 0 14
-191407 -70751 0;
#X obj 431 149 cnv 15 30 30 empty \$0-cnv-bg-dark empty 20 12 0 14
-191407 -70751 0;
#X obj 492 149 cnv 15 30 30 empty \$0-cnv-bg-dark empty 20 12 0 14
-191407 -70751 0;
#X obj 553 149 cnv 15 26 30 empty \$0-cnv-bg-dark empty 20 12 0 14
-191407 -70751 0;
#X text 107 155 0;
#X text 137 155 1;
#X text 167 155 2;
#X text 197 155 3;
#X text 227 155 4;
#X text 257 155 5;
#X text 287 155 6;
#X text 318 155 7;
#X text 349 155 8;
#X text 379 155 9;
#X text 405 155 10;
#X text 435 155 11;
#X text 466 155 12;
#X text 497 155 13;
#X text 527 155 14;
#X text 557 155 15;
#X floatatom 353 341 5 0 0 0 - - -, f 5;
#X obj 353 829 outlet~;
#X obj 353 441 f;
#X obj 363 849 outlet~;
#X obj 383 869 outlet~;
#X obj 383 421 f;
#X obj 393 889 outlet~;
#X obj 413 909 outlet~;
#X obj 413 401 f;
#X obj 423 929 outlet~;
#X obj 443 949 outlet~;
#X obj 443 381 f;
#X obj 453 969 outlet~;
#X obj 353 654 receive~ \$0-temp;
#X obj 363 674 receive~ \$0-temp;
#X obj 383 694 receive~ \$0-temp;
#X obj 393 714 receive~ \$0-temp;
#X obj 413 734 receive~ \$0-temp;
#X obj 423 754 receive~ \$0-temp;
#X obj 443 774 receive~ \$0-temp;
#X obj 453 794 receive~ \$0-temp;
#X floatatom 633 341 5 0 0 0 - - -, f 5;
#X obj 633 829 outlet~;
#X obj 633 441 f;
#X obj 643 849 outlet~;
#X obj 663 869 outlet~;
#X obj 663 421 f;
#X obj 673 889 outlet~;
#X obj 693 909 outlet~;
#X obj 693 401 f;
#X obj 703 929 outlet~;
#X obj 723 949 outlet~;
#X obj 723 381 f;
#X obj 733 969 outlet~;
#X obj 633 654 receive~ \$0-temp;
#X obj 643 674 receive~ \$0-temp;
#X obj 663 694 receive~ \$0-temp;
#X obj 673 714 receive~ \$0-temp;
#X obj 693 734 receive~ \$0-temp;
#X obj 703 754 receive~ \$0-temp;
#X obj 723 774 receive~ \$0-temp;
#X obj 733 794 receive~ \$0-temp;
#X floatatom 913 341 5 0 0 0 - - -, f 5;
#X obj 913 829 outlet~;
#X obj 913 441 f;
#X obj 923 849 outlet~;
#X obj 943 869 outlet~;
#X obj 943 421 f;
#X obj 953 889 outlet~;
#X obj 973 909 outlet~;
#X obj 973 401 f;
#X obj 983 929 outlet~;
#X obj 1003 949 outlet~;
#X obj 1003 381 f;
#X obj 1013 969 outlet~;
#X obj 913 654 receive~ \$0-temp;
#X obj 923 674 receive~ \$0-temp;
#X obj 943 694 receive~ \$0-temp;
#X obj 953 714 receive~ \$0-temp;
#X obj 973 734 receive~ \$0-temp;
#X obj 983 754 receive~ \$0-temp;
#X obj 1003 774 receive~ \$0-temp;
#X obj 1013 794 receive~ \$0-temp;
#X msg 353 478 set \$1-audio-out-L-4;
#X msg 363 498 set \$1-audio-out-R-4;
#X msg 383 518 set \$1-audio-out-L-5;
#X msg 393 538 set \$1-audio-out-R-5;
#X msg 413 558 set \$1-audio-out-L-6;
#X msg 423 578 set \$1-audio-out-R-6;
#X msg 443 598 set \$1-audio-out-L-7;
#X msg 453 618 set \$1-audio-out-R-7;
#X msg 633 478 set \$1-audio-out-L-8;
#X msg 643 498 set \$1-audio-out-R-8;
#X msg 663 518 set \$1-audio-out-L-9;
#X msg 673 538 set \$1-audio-out-R-9;
#X msg 693 558 set \$1-audio-out-L-10;
#X msg 703 578 set \$1-audio-out-R-10;
#X msg 723 598 set \$1-audio-out-L-11;
#X msg 733 618 set \$1-audio-out-R-11;
#X msg 913 478 set \$1-audio-out-L-12;
#X msg 923 498 set \$1-audio-out-R-12;
#X msg 943 518 set \$1-audio-out-L-13;
#X msg 953 538 set \$1-audio-out-R-13;
#X msg 973 558 set \$1-audio-out-L-14;
#X msg 1003 598 set \$1-audio-out-L-15;
#X msg 1013 618 set \$1-audio-out-R-15;
#X msg 983 578 set \$1-audio-out-R-14;
#X text 651 59 Output the left and right audio channels from each individual
sampler within The Beat Cop. This is before the FX chain \, and before
the volume adjustment.;
#X obj 101 119 cnv 5 478 5 empty \$0-cnv-color empty 20 12 0 14 -123986
-123986 0;
#X obj 108 230 change -1;
#X text 649 130 Usage: Connect to the EXP outlet of The Beat Cop;
#X obj 108 205 inlet exp;
#X obj 204 301 s \$0-cnv-color;
#X obj 204 276 tbc-utils/color-canvas-for-exp;
#X text 667 210 <-- Dummy send to remove console errors;
#X text 14 7 v1.0.0 megalon 2018;
#X connect 0 0 3 0;
#X connect 0 0 7 0;
#X connect 0 0 12 0;
#X connect 0 0 15 0;
#X connect 0 0 55 0;
#X connect 1 0 22 0;
#X connect 3 0 1 0;
#X connect 3 0 4 0;
#X connect 4 0 23 0;
#X connect 7 0 9 0;
#X connect 7 0 10 0;
#X connect 9 0 24 0;
#X connect 10 0 25 0;
#X connect 12 0 17 0;
#X connect 12 0 18 0;
#X connect 15 0 19 0;
#X connect 15 0 20 0;
#X connect 17 0 26 0;
#X connect 18 0 27 0;
#X connect 19 0 28 0;
#X connect 20 0 29 0;
#X connect 22 0 2 0;
#X connect 23 0 5 0;
#X connect 24 0 6 0;
#X connect 25 0 8 0;
#X connect 26 0 11 0;
#X connect 27 0 13 0;
#X connect 28 0 14 0;
#X connect 29 0 16 0;
#X connect 55 0 57 0;
#X connect 55 0 60 0;
#X connect 55 0 63 0;
#X connect 55 0 66 0;
#X connect 55 0 76 0;
#X connect 57 0 118 0;
#X connect 57 0 119 0;
#X connect 60 0 120 0;
#X connect 60 0 121 0;
#X connect 63 0 122 0;
#X connect 63 0 123 0;
#X connect 66 0 124 0;
#X connect 66 0 125 0;
#X connect 68 0 56 0;
#X connect 69 0 58 0;
#X connect 70 0 59 0;
#X connect 71 0 61 0;
#X connect 72 0 62 0;
#X connect 73 0 64 0;
#X connect 74 0 65 0;
#X connect 75 0 67 0;
#X connect 76 0 78 0;
#X connect 76 0 81 0;
#X connect 76 0 84 0;
#X connect 76 0 87 0;
#X connect 76 0 97 0;
#X connect 78 0 126 0;
#X connect 78 0 127 0;
#X connect 81 0 128 0;
#X connect 81 0 129 0;
#X connect 84 0 130 0;
#X connect 84 0 131 0;
#X connect 87 0 132 0;
#X connect 87 0 133 0;
#X connect 89 0 77 0;
#X connect 90 0 79 0;
#X connect 91 0 80 0;
#X connect 92 0 82 0;
#X connect 93 0 83 0;
#X connect 94 0 85 0;
#X connect 95 0 86 0;
#X connect 96 0 88 0;
#X connect 97 0 99 0;
#X connect 97 0 102 0;
#X connect 97 0 105 0;
#X connect 97 0 108 0;
#X connect 99 0 134 0;
#X connect 99 0 135 0;
#X connect 102 0 136 0;
#X connect 102 0 137 0;
#X connect 105 0 138 0;
#X connect 105 0 141 0;
#X connect 108 0 139 0;
#X connect 108 0 140 0;
#X connect 110 0 98 0;
#X connect 111 0 100 0;
#X connect 112 0 101 0;
#X connect 113 0 103 0;
#X connect 114 0 104 0;
#X connect 115 0 106 0;
#X connect 116 0 107 0;
#X connect 117 0 109 0;
#X connect 118 0 68 0;
#X connect 119 0 69 0;
#X connect 120 0 70 0;
#X connect 121 0 71 0;
#X connect 122 0 72 0;
#X connect 123 0 73 0;
#X connect 124 0 74 0;
#X connect 125 0 75 0;
#X connect 126 0 89 0;
#X connect 127 0 90 0;
#X connect 128 0 91 0;
#X connect 129 0 92 0;
#X connect 130 0 93 0;
#X connect 131 0 94 0;
#X connect 132 0 95 0;
#X connect 133 0 96 0;
#X connect 134 0 110 0;
#X connect 135 0 111 0;
#X connect 136 0 112 0;
#X connect 137 0 113 0;
#X connect 138 0 114 0;
#X connect 139 0 116 0;
#X connect 140 0 117 0;
#X connect 141 0 115 0;
#X connect 144 0 0 0;
#X connect 144 0 148 0;
#X connect 146 0 144 0;
#X connect 148 0 147 0;
#X coords 0 -1 1 1 480 81 1 100 100;
