#N canvas 72 504 769 436 12;
#X obj 208 238 tgl 30 0 empty empty RECORD -2 -8 0 10 -1 -258113 -1
0 1;
#N canvas 347 93 864 630 filewriter 0;
#X obj 421 27 inlet start;
#X obj 496 89 f 0;
#X obj 529 89 + 1;
#X msg 440 436 stop \, open \$1;
#X msg 421 132 start;
#X msg 355 133 stop;
#X obj 318 550 outlet done;
#X obj 576 436 print recording:;
#X obj 318 29 inlet stop;
#X obj 318 54 t b b;
#X obj 605 112 bng 15 250 50 0 empty empty empty 17 7 0 10 -262144
-1 -1;
#X obj 605 138 savepanel;
#X msg 642 305 set \$1;
#X obj 605 349 makefilename x;
#X obj 605 30 inlet pick-location;
#X obj 421 52 t b b b;
#X obj 605 213 t s b;
#X obj 28 550 writesf~ 2;
#X obj 27 33 inlet~ audioL;
#X obj 105 57 inlet~ audioR;
#X obj 560 396 symbol;
#X obj 642 276 makefilename %%s%d.wav;
#X obj 642 243 f;
#X floatatom 496 114 5 0 0 0 - - -, f 5;
#X obj 605 182 symbol;
#X obj 496 136 t b f;
#X obj 677 182 print path:;
#X obj 560 550 outlet filename;
#X text 454 277 Look up makefilename ->;
#X connect 0 0 15 0;
#X connect 1 0 2 0;
#X connect 1 0 23 0;
#X connect 2 0 1 1;
#X connect 3 0 17 0;
#X connect 4 0 17 0;
#X connect 5 0 17 0;
#X connect 8 0 9 0;
#X connect 9 0 6 0;
#X connect 9 1 5 0;
#X connect 10 0 11 0;
#X connect 11 0 24 1;
#X connect 11 0 26 0;
#X connect 12 0 13 0;
#X connect 13 0 20 1;
#X connect 14 0 10 0;
#X connect 15 0 4 0;
#X connect 15 1 20 0;
#X connect 15 2 1 0;
#X connect 16 0 13 0;
#X connect 16 1 22 0;
#X connect 18 0 17 0;
#X connect 19 0 17 1;
#X connect 20 0 7 0;
#X connect 20 0 3 0;
#X connect 20 0 27 0;
#X connect 21 0 12 0;
#X connect 22 0 21 0;
#X connect 23 0 25 0;
#X connect 24 0 16 0;
#X connect 25 0 24 0;
#X connect 25 1 22 1;
#X restore 68 154 pd filewriter 1000 soundfile;
#X obj 120 238 bng 30 250 50 0 empty empty FILE 3 -8 0 10 -228856 -1
-1;
#X obj 267 236 sel 0 1;
#X obj 22 30 inlet~ audio_left;
#X obj 171 29 inlet~ audio_right;
#X text 410 198 Outlet: Sends bang when finished recording;
#X text 465 145 Save audio to a specified file path;
#X obj 345 28 inlet start-stop;
#X obj 289 317 outlet filename;
#X text 361 162 Automatically adds index num and .wav to the end;
#X obj 68 317 outlet done;
#X connect 0 0 3 0;
#X connect 1 0 11 0;
#X connect 1 1 9 0;
#X connect 2 0 1 4;
#X connect 3 0 1 2;
#X connect 3 1 1 3;
#X connect 4 0 1 0;
#X connect 5 0 1 1;
#X connect 8 0 0 0;
#X coords 0 -1 1 1 158 80 1 100 200;
