#N canvas 642 309 769 535 12;
#X obj 208 258 tgl 30 0 empty empty RECORD -2 -8 0 10 -1 -258113 -1
0 1;
#N canvas 347 93 864 630 filewriter 0;
#X obj 496 151 f 0;
#X obj 529 151 + 1;
#X msg 441 501 stop \, open \$1;
#X msg 421 194 start;
#X msg 355 195 stop;
#X obj 318 550 outlet done;
#X obj 592 487 print recording:;
#X obj 318 116 t b b;
#X obj 605 112 bng 15 250 50 0 empty empty empty 17 7 0 10 -262144
-1 -1;
#X obj 605 138 savepanel;
#X msg 642 305 set \$1;
#X obj 605 349 makefilename x;
#X obj 605 30 inlet pick-location;
#X obj 421 114 t b b b;
#X obj 605 213 t s b;
#X obj 28 550 writesf~ 2;
#X obj 27 33 inlet~ audioL;
#X obj 105 57 inlet~ audioR;
#X obj 560 396 symbol;
#X obj 642 243 f;
#X floatatom 496 176 5 0 0 0 - - -;
#X obj 605 182 symbol;
#X obj 496 198 t b f;
#X obj 677 182 print path:;
#X text 454 277 Look up makefilename ->;
#X obj 318 29 inlet start-stop;
#X obj 318 53 sel 0 1;
#X obj 560 420 t a a;
#X obj 642 276 makefilename %%s%d;
#X obj 592 449 makefilename %s.wav;
#X obj 560 553 outlet folder-path;
#X obj 722 553 outlet file-name;
#X obj 560 522 tbc-utils/get-path-to-folder;
#X obj 622 396 tbc-utils/get-file-name;
#X connect 0 0 1 0;
#X connect 0 0 20 0;
#X connect 1 0 0 1;
#X connect 2 0 15 0;
#X connect 3 0 15 0;
#X connect 4 0 15 0;
#X connect 7 0 5 0;
#X connect 7 1 4 0;
#X connect 8 0 9 0;
#X connect 9 0 21 1;
#X connect 9 0 23 0;
#X connect 10 0 11 0;
#X connect 11 0 18 1;
#X connect 11 0 33 0;
#X connect 12 0 8 0;
#X connect 13 0 3 0;
#X connect 13 1 18 0;
#X connect 13 2 0 0;
#X connect 14 0 11 0;
#X connect 14 1 19 0;
#X connect 16 0 15 0;
#X connect 17 0 15 1;
#X connect 18 0 27 0;
#X connect 19 0 28 0;
#X connect 20 0 22 0;
#X connect 21 0 14 0;
#X connect 22 0 21 0;
#X connect 22 1 19 1;
#X connect 25 0 26 0;
#X connect 26 0 7 0;
#X connect 26 1 13 0;
#X connect 27 0 32 0;
#X connect 27 1 29 0;
#X connect 28 0 10 0;
#X connect 29 0 6 0;
#X connect 29 0 2 0;
#X connect 32 0 30 0;
#X connect 33 0 31 0;
#X restore 68 154 pd filewriter 1000 soundfile;
#X f 42;
#X obj 112 258 bng 30 250 50 0 empty empty MAIN 3 -8 0 10 -228856 -1
-1;
#X obj 22 30 inlet~ audio_left;
#X obj 171 29 inlet~ audio_right;
#X text 467 81 Save audio to a specified file path;
#X obj 345 28 inlet start-stop;
#X obj 450 445 outlet filename;
#X text 363 98 Automatically adds index num and .wav to the end;
#X obj 68 447 outlet done;
#X obj 228 482 record-16;
#X obj 471 28 inlet patch-id;
#X obj 258 423 t f f;
#X obj 112 333 tgl 15 0 empty empty SEPARATE_PARTS 20 5 0 10 -262144
-1 -1 1 1;
#X obj 258 447 spigot 0;
#X obj 152 258 bng 30 250 50 0 empty empty PARTS 0 -8 0 10 -228856
-1 -1;
#X text 110 308 OPTIONS;
#X text 112 223 FILE PATHS;
#X connect 0 0 12 0;
#X connect 1 0 9 0;
#X connect 1 2 10 3;
#X connect 2 0 1 3;
#X connect 3 0 1 0;
#X connect 4 0 1 1;
#X connect 6 0 0 0;
#X connect 11 0 10 0;
#X connect 12 0 14 0;
#X connect 12 1 1 2;
#X connect 13 0 14 1;
#X connect 14 0 10 1;
#X connect 15 0 10 2;
#X coords 0 -1 1 1 150 160 1 100 200;
