#N canvas 855 487 778 355 12;
#X obj 88 42 inlet tbc-patch-id;
#X msg 88 95 all \$1;
#X obj 88 304 clone tbc-utils/record-single 16;
#X obj 88 66 change;
#X obj 238 42 inlet start-stop;
#X msg 238 71 all \$1;
#X msg 374 259 all \$1;
#X obj 374 41 inlet open-dialog;
#X obj 374 65 savepanel;
#X obj 581 41 inlet file-name;
#X obj 374 121 tbc-utils/get-path-to-folder;
#X obj 374 145 list fromsymbol;
#X obj 374 223 list tosymbol;
#X obj 581 121 list fromsymbol;
#X obj 374 89 symbol;
#X obj 581 78 symbol;
#X obj 552 58 bng 15 250 50 0 empty empty empty 17 7 0 10 -262144 -1
-1;
#X obj 343 68 bng 15 250 50 0 empty empty empty 17 7 0 10 -262144 -1
-1;
#X obj 374 199 list prepend;
#X connect 0 0 3 0;
#X connect 1 0 2 0;
#X connect 3 0 1 0;
#X connect 4 0 5 0;
#X connect 5 0 2 1;
#X connect 6 0 2 2;
#X connect 7 0 8 0;
#X connect 8 0 14 0;
#X connect 9 0 15 0;
#X connect 10 0 11 0;
#X connect 11 0 18 1;
#X connect 12 0 6 0;
#X connect 13 0 18 0;
#X connect 14 0 10 0;
#X connect 15 0 13 0;
#X connect 16 0 15 0;
#X connect 17 0 14 0;
#X connect 18 0 12 0;
